<?xml version="1.0" encoding="UTF-8" standalone="no" ?>
<!DOCTYPE svg PUBLIC "-//W3C//DTD SVG 1.1//EN" "http://www.w3.org/Graphics/SVG/1.1/DTD/svg11.dtd">
<svg xmlns="http://www.w3.org/2000/svg" xmlns:xlink="http://www.w3.org/1999/xlink" version="1.1" width="500" height="500" viewBox="0 0 500 500" xml:space="preserve">
<desc>Created with Fabric.js 4.6.0</desc>
<defs>
</defs>
<g transform="matrix(5.01 0 0 0.94 257.24 315.06)" id="pqC7jAbUxoI25uMbs7Don"  >
<path style="stroke: rgb(17,242,181); stroke-width: 0; stroke-dasharray: none; stroke-linecap: butt; stroke-dashoffset: 0; stroke-linejoin: miter; stroke-miterlimit: 4; fill: rgb(215,234,250); fill-rule: nonzero; opacity: 1;" vector-effect="non-scaling-stroke"  transform=" translate(0, 0)" d="M 0 -47 C 25.944 -47 47 -25.944 47 0 C 47 25.944 25.944 47 0 47 C -25.944 47 -47 25.944 -47 0 C -47 -25.944 -25.944 -47 0 -47 z" stroke-linecap="round" />
</g>
<g transform="matrix(6.757304410065483e+22 0 0 6.757304410065483e+22 149.29 73.02)" id="Dz-otGpqaRhuTU2G6bXkf"  >
<path style="stroke: rgb(0,0,0); stroke-width: 1; stroke-dasharray: none; stroke-linecap: butt; stroke-dashoffset: 0; stroke-linejoin: miter; stroke-miterlimit: 4; fill: rgb(255,255,255); fill-opacity: 0; fill-rule: nonzero; opacity: 1;" vector-effect="non-scaling-stroke"  transform=" translate(0, 0)" d="M 0 0 z" stroke-linecap="round" />
</g>
<g transform="matrix(0.87 0 0 0.87 266.05 233.75)" id="0tC6Dbg4zQ40qz_ZfJlGe"  >
<path style="stroke: none; stroke-width: 1; stroke-dasharray: none; stroke-linecap: butt; stroke-dashoffset: 0; stroke-linejoin: miter; stroke-miterlimit: 4; fill: rgb(179,181,179); fill-rule: nonzero; opacity: 1;" vector-effect="non-scaling-stroke"  transform=" translate(-40, -40)" d="M 60.214 56.561 L 60.214 46.09 L 19.786 46.09 L 19.786 56.56 L 0 40 L 19.786 23.439 L 19.786 33.938 L 60.214 33.938 L 60.214 23.439 L 80 40 L 60.214 56.561 z" stroke-linecap="round" />
</g>
<g transform="matrix(0.83 0 0 0.83 132.54 246.03)" id="qM1G8VRdmkFQgRWQODUqp"  >
<g style="" vector-effect="non-scaling-stroke"   >
		<g transform="matrix(3.8 0 0 3.8 0 0)" id="dc3mZXot5UUy1-ERucRa_"  >
<path style="stroke: rgb(255,255,255); stroke-width: 8.13; stroke-dasharray: none; stroke-linecap: round; stroke-dashoffset: 0; stroke-linejoin: round; stroke-miterlimit: 4; fill: none; fill-rule: nonzero; opacity: 1;" vector-effect="non-scaling-stroke"  transform=" translate(-30, -30)" d="M 26.134 9.1443 L 17.187 17.872999999999998 C 17.187 17.872999999999998 16.969 18.348999999999997 16.969 18.651999999999997 L 16.969 25.946999999999996 L 13.883000000000001 25.946999999999996 L 5.1539 34.42699999999999 C 5.1196 34.45799999999999 5.0915 34.48599999999999 5.0604000000000005 34.519999999999996 C 5.0604000000000005 34.519999999999996 4.6863 35.151999999999994 4.6863 35.455999999999996 L 4.6863 49.452999999999996 C 4.6863 50.230999999999995 5.3108 50.855999999999995 6.0892 50.855999999999995 L 20.0872 50.855999999999995 L 29.688200000000002 42.096 L 29.688200000000002 49.452999999999996 C 29.688200000000002 50.230999999999995 30.313200000000002 50.855999999999995 31.0912 50.855999999999995 L 45.6112 50.855999999999995 L 55.3142 41.50299999999999 L 55.3142 25.946999999999996 L 42.6162 25.946999999999996 L 42.5942 9.143999999999995 L 26.1342 9.144299999999994 z" stroke-linecap="round" />
</g>
		<g transform="matrix(3.27 0 0 3.27 -17.22 32.35)" id="YB67RY9fqsTJs5m2L47_7"  >
<path style="stroke: rgb(0,0,0); stroke-width: 3.61; stroke-dasharray: none; stroke-linecap: round; stroke-dashoffset: 0; stroke-linejoin: round; stroke-miterlimit: 4; fill: rgb(255,87,87); fill-rule: evenodd; opacity: 1;" vector-effect="non-scaling-stroke"  transform=" translate(-29.21, -42.61)" d="M 23.692 56.796 L 34.730000000000004 46.123 L 34.730000000000004 28.433999999999997 L 23.765000000000004 38.814 L 23.692000000000004 56.796 z" stroke-linecap="round" />
</g>
		<g transform="matrix(3.27 0 0 3.27 -47.36 2.7)" id="dcgvO4ROO-aCkrQjLJRIx"  >
<path style="stroke: rgb(0,0,0); stroke-width: 3.61; stroke-dasharray: none; stroke-linecap: round; stroke-dashoffset: 0; stroke-linejoin: round; stroke-miterlimit: 4; fill: rgb(255,87,87); fill-rule: evenodd; opacity: 1;" vector-effect="non-scaling-stroke"  transform=" translate(-20.04, -33.59)" d="M 5.3441 38.229 L 15.7241 28.141 L 34.7301 28.141 L 23.6191 39.033 L 5.344100000000001 38.229 z" stroke-linecap="round" />
</g>
		<g transform="matrix(3.27 0 0 3.27 -64.5 47.51)" id="aTOiC1yOyuFIhDe9dXHJg"  >
<path style="stroke: rgb(0,0,0); stroke-width: 3.61; stroke-dasharray: none; stroke-linecap: round; stroke-dashoffset: 0; stroke-linejoin: round; stroke-miterlimit: 4; fill: rgb(255,87,87); fill-rule: evenodd; opacity: 1;" vector-effect="non-scaling-stroke"  transform=" translate(-14.83, -47.23)" d="M 6.734 37.511 C 5.8338 37.511 5.1091 38.236000000000004 5.1091 39.136 L 5.1091 55.321 C 5.1091 56.222 5.8338 56.946 6.734 56.946 L 22.918999999999997 56.946 C 23.818999999999996 56.946 24.543999999999997 56.222 24.543999999999997 55.321 L 24.543999999999997 39.135999999999996 C 24.543999999999997 38.236 23.818999999999996 37.510999999999996 22.918999999999997 37.510999999999996 L 6.733999999999998 37.510999999999996 z" stroke-linecap="round" />
</g>
		<g transform="matrix(3.27 0 0 3.27 77.84 32.35)" id="0JMq5IiP7ZV6skg6hTL3L"  >
<path style="stroke: rgb(0,0,0); stroke-width: 3.61; stroke-dasharray: none; stroke-linecap: round; stroke-dashoffset: 0; stroke-linejoin: round; stroke-miterlimit: 4; fill: rgb(255,222,89); fill-rule: evenodd; opacity: 1;" vector-effect="non-scaling-stroke"  transform=" translate(-29.21, -42.61)" d="M 23.692 56.796 L 34.730000000000004 46.123 L 34.730000000000004 28.433999999999997 L 23.765000000000004 38.814 L 23.692000000000004 56.796 z" stroke-linecap="round" />
</g>
		<g transform="matrix(3.27 0 0 3.27 47.7 2.7)" id="go82EwYvZ27VC-TbvmQiV"  >
<path style="stroke: rgb(0,0,0); stroke-width: 3.61; stroke-dasharray: none; stroke-linecap: round; stroke-dashoffset: 0; stroke-linejoin: round; stroke-miterlimit: 4; fill: rgb(255,222,89); fill-rule: evenodd; opacity: 1;" vector-effect="non-scaling-stroke"  transform=" translate(-20.04, -33.59)" d="M 5.3441 38.229 L 15.7241 28.141 L 34.7301 28.141 L 23.6191 39.033 L 5.344100000000001 38.229 z" stroke-linecap="round" />
</g>
		<g transform="matrix(3.27 0 0 3.27 30.56 47.51)" id="eDH6cgMlEMJ5LuRywJQf0"  >
<path style="stroke: rgb(0,0,0); stroke-width: 3.61; stroke-dasharray: none; stroke-linecap: round; stroke-dashoffset: 0; stroke-linejoin: round; stroke-miterlimit: 4; fill: rgb(255,222,89); fill-rule: evenodd; opacity: 1;" vector-effect="non-scaling-stroke"  transform=" translate(-14.83, -47.23)" d="M 6.734 37.511 C 5.8338 37.511 5.1091 38.236000000000004 5.1091 39.136 L 5.1091 55.321 C 5.1091 56.222 5.8338 56.946 6.734 56.946 L 22.918999999999997 56.946 C 23.818999999999996 56.946 24.543999999999997 56.222 24.543999999999997 55.321 L 24.543999999999997 39.135999999999996 C 24.543999999999997 38.236 23.818999999999996 37.510999999999996 22.918999999999997 37.510999999999996 L 6.733999999999998 37.510999999999996 z" stroke-linecap="round" />
</g>
		<g transform="matrix(3.27 0 0 3.27 29.46 -31.51)" id="TIf8fkXk5wX18fbIzgcQA"  >
<path style="stroke: rgb(0,0,0); stroke-width: 3.61; stroke-dasharray: none; stroke-linecap: round; stroke-dashoffset: 0; stroke-linejoin: round; stroke-miterlimit: 4; fill: rgb(82,113,255); fill-rule: evenodd; opacity: 1;" vector-effect="non-scaling-stroke"  transform=" translate(-29.21, -42.61)" d="M 23.692 56.796 L 34.730000000000004 46.123 L 34.730000000000004 28.433999999999997 L 23.765000000000004 38.814 L 23.692000000000004 56.796 z" stroke-linecap="round" />
</g>
		<g transform="matrix(3.27 0 0 3.27 -0.68 -61.19)" id="IYxu2RwGygWdxmQfWPf5s"  >
<path style="stroke: rgb(0,0,0); stroke-width: 3.61; stroke-dasharray: none; stroke-linecap: round; stroke-dashoffset: 0; stroke-linejoin: round; stroke-miterlimit: 4; fill: rgb(82,113,255); fill-rule: evenodd; opacity: 1;" vector-effect="non-scaling-stroke"  transform=" translate(-20.04, -33.59)" d="M 5.3441 38.229 L 15.7241 28.141 L 34.7301 28.141 L 23.6191 39.033 L 5.344100000000001 38.229 z" stroke-linecap="round" />
</g>
		<g transform="matrix(3.27 0 0 3.27 -17.83 -16.34)" id="JwRV2CLGDe5E1d21y13e4"  >
<path style="stroke: rgb(0,0,0); stroke-width: 3.61; stroke-dasharray: none; stroke-linecap: round; stroke-dashoffset: 0; stroke-linejoin: round; stroke-miterlimit: 4; fill: rgb(82,113,255); fill-rule: evenodd; opacity: 1;" vector-effect="non-scaling-stroke"  transform=" translate(-14.83, -47.23)" d="M 6.734 37.511 C 5.8338 37.511 5.1091 38.236000000000004 5.1091 39.136 L 5.1091 55.321 C 5.1091 56.222 5.8338 56.946 6.734 56.946 L 22.918999999999997 56.946 C 23.818999999999996 56.946 24.543999999999997 56.222 24.543999999999997 55.321 L 24.543999999999997 39.135999999999996 C 24.543999999999997 38.236 23.818999999999996 37.510999999999996 22.918999999999997 37.510999999999996 L 6.733999999999998 37.510999999999996 z" stroke-linecap="round" />
</g>
</g>
</g>
<g transform="matrix(0.96 0 0 0.96 363.5 219.9)" id="fAxK152yy8faC_BhTW8hS"  >
<g style="" vector-effect="non-scaling-stroke"   >
		<g transform="matrix(0.4 0 0 0.4 -32.77 -76.47)" id="JqcEIbRgJR_z74VaJhEUu"  >
<path style="stroke: rgb(239,16,77); stroke-opacity: 0.88; stroke-width: 0.5; stroke-dasharray: none; stroke-linecap: butt; stroke-dashoffset: 0; stroke-linejoin: miter; stroke-miterlimit: 4; fill: rgb(71,28,156); fill-opacity: 0.89; fill-rule: nonzero; opacity: 1;" vector-effect="non-scaling-stroke"  transform=" translate(-16.8, -19.32)" d="M 0 38.642 L 0 0 L 33.602 0 L 33.602 38.642 z" stroke-linecap="round" />
</g>
		<g transform="matrix(0.4 0 0 0.4 -12.12 -76.47)" id="dhVnwOYKy81dHYwOBJIYC"  >
<path style="stroke: rgb(239,16,77); stroke-opacity: 0.88; stroke-width: 0.5; stroke-dasharray: none; stroke-linecap: butt; stroke-dashoffset: 0; stroke-linejoin: miter; stroke-miterlimit: 4; fill: rgb(71,28,156); fill-opacity: 0.89; fill-rule: nonzero; opacity: 1;" vector-effect="non-scaling-stroke"  transform=" translate(-16.8, -19.32)" d="M 0 38.642 L 0 0 L 33.602 0 L 33.602 38.642 z" stroke-linecap="round" />
</g>
		<g transform="matrix(0.4 0 0 0.4 29.34 -76.47)" id="4VuOyztZDN8wYWzsvsZMQ"  >
<path style="stroke: rgb(239,16,77); stroke-opacity: 0.88; stroke-width: 0.5; stroke-dasharray: none; stroke-linecap: butt; stroke-dashoffset: 0; stroke-linejoin: miter; stroke-miterlimit: 4; fill: rgb(71,28,156); fill-opacity: 0.89; fill-rule: nonzero; opacity: 1;" vector-effect="non-scaling-stroke"  transform=" translate(-16.8, -19.32)" d="M 0 38.642 L 0 0 L 33.602 0 L 33.602 38.642 z" stroke-linecap="round" />
</g>
		<g transform="matrix(0.4 0 0 0.4 8.02 -76.47)" id="g3HPZXCutOHSxDWsuOUy6"  >
<path style="stroke: rgb(239,16,77); stroke-opacity: 0.88; stroke-width: 0.5; stroke-dasharray: none; stroke-linecap: butt; stroke-dashoffset: 0; stroke-linejoin: miter; stroke-miterlimit: 4; fill: rgb(71,28,156); fill-opacity: 0.89; fill-rule: nonzero; opacity: 1;" vector-effect="non-scaling-stroke"  transform=" translate(-16.8, -19.32)" d="M 0 38.642 L 0 0 L 33.602 0 L 33.602 38.642 z" stroke-linecap="round" />
</g>
		<g transform="matrix(1.27 0.1 -0.16 2.04 88.57 60.2)" id="qe_CYN5UiM0ZbF3fyB0ij"  >
<linearGradient id="SVGID_16" gradientUnits="userSpaceOnUse" gradientTransform="matrix(1 0 0 1 0 0)"  x1="189.61" y1="384.75" x2="200.36" y2="386.79">
<stop offset="0%" style="stop-color:rgb(223,104,0);stop-opacity: 0.92982"/>
<stop offset="100%" style="stop-color:rgb(223,104,0);stop-opacity: 0"/>
</linearGradient>
<path style="stroke: url(#SVGID_16); stroke-width: 0.25; stroke-dasharray: none; stroke-linecap: square; stroke-dashoffset: 0; stroke-linejoin: bevel; stroke-miterlimit: 4; fill: rgb(179,97,0); fill-rule: evenodd; opacity: 1;" vector-effect="non-scaling-stroke"  transform=" translate(-192.01, -385.44)" d="M 188.44 391.38 C 184.4493426533825 390.29010950191315 182.10765271044232 387.53601202136525 182.77475254632844 384.71701552339306 C 183.44185238221453 381.89801902542087 186.94413803978694 379.7477302670426 191.24782771300914 379.5148247082564 C 195.55151738623132 379.2819191494703 199.53663244914316 381.02700739826946 200.88901143624904 383.73671445405625 C 202.2413904233549 386.446421509843 200.6090944926931 389.4155817553152 196.94 390.92 L 192.01 385.67 z" stroke-linecap="round" />
</g>
		<g transform="matrix(1.27 0.1 -0.16 2.04 -67.08 57.72)" id="04pEex3KeN8g1gyW5ncNZ"  >
<linearGradient id="SVGID_17" gradientUnits="userSpaceOnUse" gradientTransform="matrix(1 0 0 1 0 0)"  x1="189.61" y1="384.75" x2="200.36" y2="386.79">
<stop offset="0%" style="stop-color:rgb(223,104,0);stop-opacity: 0.92982"/>
<stop offset="100%" style="stop-color:rgb(223,104,0);stop-opacity: 0"/>
</linearGradient>
<path style="stroke: url(#SVGID_17); stroke-width: 0.25; stroke-dasharray: none; stroke-linecap: square; stroke-dashoffset: 0; stroke-linejoin: bevel; stroke-miterlimit: 4; fill: rgb(179,97,0); fill-rule: evenodd; opacity: 1;" vector-effect="non-scaling-stroke"  transform=" translate(-192.01, -385.44)" d="M 188.44 391.38 C 184.4493426533825 390.29010950191315 182.10765271044232 387.53601202136525 182.77475254632844 384.71701552339306 C 183.44185238221453 381.89801902542087 186.94413803978694 379.7477302670426 191.24782771300914 379.5148247082564 C 195.55151738623132 379.2819191494703 199.53663244914316 381.02700739826946 200.88901143624904 383.73671445405625 C 202.2413904233549 386.446421509843 200.6090944926931 389.4155817553152 196.94 390.92 L 192.01 385.67 z" stroke-linecap="round" />
</g>
		<g transform="matrix(1.27 0.1 -0.16 2.04 -95.09 57.48)" id="PlzRi81ZjsALXPE44OVab"  >
<linearGradient id="SVGID_18" gradientUnits="userSpaceOnUse" gradientTransform="matrix(1 0 0 1 0 0)"  x1="189.61" y1="384.75" x2="200.36" y2="386.79">
<stop offset="0%" style="stop-color:rgb(223,104,0);stop-opacity: 0.92982"/>
<stop offset="100%" style="stop-color:rgb(223,104,0);stop-opacity: 0"/>
</linearGradient>
<path style="stroke: url(#SVGID_18); stroke-width: 0.25; stroke-dasharray: none; stroke-linecap: square; stroke-dashoffset: 0; stroke-linejoin: bevel; stroke-miterlimit: 4; fill: rgb(179,97,0); fill-rule: evenodd; opacity: 1;" vector-effect="non-scaling-stroke"  transform=" translate(-192.01, -385.44)" d="M 188.44 391.38 C 184.4493426533825 390.29010950191315 182.10765271044232 387.53601202136525 182.77475254632844 384.71701552339306 C 183.44185238221453 381.89801902542087 186.94413803978694 379.7477302670426 191.24782771300914 379.5148247082564 C 195.55151738623132 379.2819191494703 199.53663244914316 381.02700739826946 200.88901143624904 383.73671445405625 C 202.2413904233549 386.446421509843 200.6090944926931 389.4155817553152 196.94 390.92 L 192.01 385.67 z" stroke-linecap="round" />
</g>
		<g transform="matrix(0.4 0 0 0.4 5.18 -50.76)" id="a_r2gjWO1rKOCkBbRTV3e"  >
<path style="stroke: none; stroke-width: 0; stroke-dasharray: none; stroke-linecap: butt; stroke-dashoffset: 0; stroke-linejoin: miter; stroke-miterlimit: 4.6; fill: rgb(205,182,0); fill-opacity: 0.11; fill-rule: nonzero; opacity: 0.56;" vector-effect="non-scaling-stroke"  transform=" translate(-325.31, -466.7)" d="M 354.84 466.7 C 354.8327971245529 472.95033418508814 341.6103499218176 478.0153802201933 325.30448088242713 478.0139997239155 C 308.99861184303666 478.01261922763774 295.78200288099595 472.9453347949019 295.78200288099595 466.695 C 295.78200288099595 460.4446652050981 308.99861184303666 455.37738077236224 325.30448088242713 455.3760002760845 C 341.6103499218176 455.37461977980666 354.8327971245529 460.43966581491185 354.84 466.69 L 325.30999999999995 466.7 z" stroke-linecap="round" />
</g>
		<g transform="matrix(0.4 0 0 0.4 -1.48 -4.29)" id="DEoWQlHNgASJUMQBdN3Q0"  >
<path style="stroke: none; stroke-width: 0; stroke-dasharray: none; stroke-linecap: butt; stroke-dashoffset: 0; stroke-linejoin: miter; stroke-miterlimit: 4; fill: rgb(205,181,0); fill-rule: nonzero; opacity: 0.56;" vector-effect="non-scaling-stroke"  transform=" translate(-116.5, -236.05)" d="M 0 472.1 L 0 0 L 233 0 L 233 472.1 z" stroke-linecap="round" />
</g>
		<g transform="matrix(0.4 0 0 0.4 30.85 66.66)" id="mGf9sHuiKK0IpWm8hg-gZ"  >
<path style="stroke: rgb(239,16,77); stroke-opacity: 0.88; stroke-width: 0.5; stroke-dasharray: none; stroke-linecap: butt; stroke-dashoffset: 0; stroke-linejoin: miter; stroke-miterlimit: 4; fill: rgb(71,28,156); fill-opacity: 0.89; fill-rule: nonzero; opacity: 1;" vector-effect="non-scaling-stroke"  transform=" translate(-16.8, -19.32)" d="M 0 38.642 L 0 0 L 33.602 0 L 33.602 38.642 z" stroke-linecap="round" />
</g>
		<g transform="matrix(0.4 0 0 0.4 -32.93 66.66)" id="7W9oXvY8OUng6iih6tpzO"  >
<path style="stroke: rgb(239,16,77); stroke-opacity: 0.88; stroke-width: 0.5; stroke-dasharray: none; stroke-linecap: butt; stroke-dashoffset: 0; stroke-linejoin: miter; stroke-miterlimit: 4; fill: rgb(71,28,156); fill-opacity: 0.89; fill-rule: nonzero; opacity: 1;" vector-effect="non-scaling-stroke"  transform=" translate(-16.8, -19.32)" d="M 0 38.642 L 0 0 L 33.602 0 L 33.602 38.642 z" stroke-linecap="round" />
</g>
		<g transform="matrix(0.4 0 0 0.4 -32.59 -53.98)" id="WT0cSbzu7FGDCyXqeaZK-"  >
<path style="stroke: rgb(239,16,77); stroke-opacity: 0.88; stroke-width: 0.5; stroke-dasharray: none; stroke-linecap: butt; stroke-dashoffset: 0; stroke-linejoin: miter; stroke-miterlimit: 4; fill: rgb(71,28,156); fill-opacity: 0.89; fill-rule: nonzero; opacity: 1;" vector-effect="non-scaling-stroke"  transform=" translate(-16.8, -19.32)" d="M 0 38.642 L 0 0 L 33.602 0 L 33.602 38.642 z" stroke-linecap="round" />
</g>
		<g transform="matrix(0.4 0 0 0.4 -11.95 -53.98)" id="nh9DZBmlu5_23qN5ttMnL"  >
<path style="stroke: rgb(239,16,77); stroke-opacity: 0.88; stroke-width: 0.5; stroke-dasharray: none; stroke-linecap: butt; stroke-dashoffset: 0; stroke-linejoin: miter; stroke-miterlimit: 4; fill: rgb(71,28,156); fill-opacity: 0.89; fill-rule: nonzero; opacity: 1;" vector-effect="non-scaling-stroke"  transform=" translate(-16.8, -19.32)" d="M 0 38.642 L 0 0 L 33.602 0 L 33.602 38.642 z" stroke-linecap="round" />
</g>
		<g transform="matrix(0.4 0 0 0.4 29.51 -53.98)" id="Fzc6qqFbx6DEximkPDWBx"  >
<path style="stroke: rgb(239,16,77); stroke-opacity: 0.88; stroke-width: 0.5; stroke-dasharray: none; stroke-linecap: butt; stroke-dashoffset: 0; stroke-linejoin: miter; stroke-miterlimit: 4; fill: rgb(71,28,156); fill-opacity: 0.89; fill-rule: nonzero; opacity: 1;" vector-effect="non-scaling-stroke"  transform=" translate(-16.8, -19.32)" d="M 0 38.642 L 0 0 L 33.602 0 L 33.602 38.642 z" stroke-linecap="round" />
</g>
		<g transform="matrix(0.4 0 0 0.4 8.19 -53.98)" id="iJFrWnRgX8teEib55V5Tz"  >
<path style="stroke: rgb(239,16,77); stroke-opacity: 0.88; stroke-width: 0.5; stroke-dasharray: none; stroke-linecap: butt; stroke-dashoffset: 0; stroke-linejoin: miter; stroke-miterlimit: 4; fill: rgb(71,28,156); fill-opacity: 0.89; fill-rule: nonzero; opacity: 1;" vector-effect="non-scaling-stroke"  transform=" translate(-16.8, -19.32)" d="M 0 38.642 L 0 0 L 33.602 0 L 33.602 38.642 z" stroke-linecap="round" />
</g>
		<g transform="matrix(0.4 0 0 0.4 -32.85 -27.62)" id="GQP2MDhSy2vWm6uUVwFgi"  >
<path style="stroke: rgb(239,16,77); stroke-opacity: 0.88; stroke-width: 0.5; stroke-dasharray: none; stroke-linecap: butt; stroke-dashoffset: 0; stroke-linejoin: miter; stroke-miterlimit: 4; fill: rgb(71,28,156); fill-opacity: 0.89; fill-rule: nonzero; opacity: 1;" vector-effect="non-scaling-stroke"  transform=" translate(-16.8, -19.32)" d="M 0 38.642 L 0 0 L 33.602 0 L 33.602 38.642 z" stroke-linecap="round" />
</g>
		<g transform="matrix(0.4 0 0 0.4 -12.2 -27.62)" id="Er9V6ORzqASVdpUXBMBW3"  >
<path style="stroke: rgb(239,16,77); stroke-opacity: 0.88; stroke-width: 0.5; stroke-dasharray: none; stroke-linecap: butt; stroke-dashoffset: 0; stroke-linejoin: miter; stroke-miterlimit: 4; fill: rgb(71,28,156); fill-opacity: 0.89; fill-rule: nonzero; opacity: 1;" vector-effect="non-scaling-stroke"  transform=" translate(-16.8, -19.32)" d="M 0 38.642 L 0 0 L 33.602 0 L 33.602 38.642 z" stroke-linecap="round" />
</g>
		<g transform="matrix(0.4 0 0 0.4 29.26 -27.62)" id="twrGeY99hgKr9_GvIWPCj"  >
<path style="stroke: rgb(239,16,77); stroke-opacity: 0.88; stroke-width: 0.5; stroke-dasharray: none; stroke-linecap: butt; stroke-dashoffset: 0; stroke-linejoin: miter; stroke-miterlimit: 4; fill: rgb(71,28,156); fill-opacity: 0.89; fill-rule: nonzero; opacity: 1;" vector-effect="non-scaling-stroke"  transform=" translate(-16.8, -19.32)" d="M 0 38.642 L 0 0 L 33.602 0 L 33.602 38.642 z" stroke-linecap="round" />
</g>
		<g transform="matrix(0.4 0 0 0.4 7.94 -27.62)" id="nkq_HRcR7EeCbw6N00Df-"  >
<path style="stroke: rgb(239,16,77); stroke-opacity: 0.88; stroke-width: 0.5; stroke-dasharray: none; stroke-linecap: butt; stroke-dashoffset: 0; stroke-linejoin: miter; stroke-miterlimit: 4; fill: rgb(71,28,156); fill-opacity: 0.89; fill-rule: nonzero; opacity: 1;" vector-effect="non-scaling-stroke"  transform=" translate(-16.8, -19.32)" d="M 0 38.642 L 0 0 L 33.602 0 L 33.602 38.642 z" stroke-linecap="round" />
</g>
		<g transform="matrix(0.4 0 0 0.4 -32.68 -5.13)" id="nPKEgSPJksejFvrKX55D4"  >
<path style="stroke: rgb(239,16,77); stroke-opacity: 0.88; stroke-width: 0.5; stroke-dasharray: none; stroke-linecap: butt; stroke-dashoffset: 0; stroke-linejoin: miter; stroke-miterlimit: 4; fill: rgb(71,28,156); fill-opacity: 0.89; fill-rule: nonzero; opacity: 1;" vector-effect="non-scaling-stroke"  transform=" translate(-16.8, -19.32)" d="M 0 38.642 L 0 0 L 33.602 0 L 33.602 38.642 z" stroke-linecap="round" />
</g>
		<g transform="matrix(0.4 0 0 0.4 -12.03 -5.13)" id="vjESa5oyiLAvpKyaMvT8Q"  >
<path style="stroke: rgb(239,16,77); stroke-opacity: 0.88; stroke-width: 0.5; stroke-dasharray: none; stroke-linecap: butt; stroke-dashoffset: 0; stroke-linejoin: miter; stroke-miterlimit: 4; fill: rgb(71,28,156); fill-opacity: 0.89; fill-rule: nonzero; opacity: 1;" vector-effect="non-scaling-stroke"  transform=" translate(-16.8, -19.32)" d="M 0 38.642 L 0 0 L 33.602 0 L 33.602 38.642 z" stroke-linecap="round" />
</g>
		<g transform="matrix(0.4 0 0 0.4 29.42 -5.13)" id="VDBXcGyW9gVF_kHZASDdi"  >
<path style="stroke: rgb(239,16,77); stroke-opacity: 0.88; stroke-width: 0.5; stroke-dasharray: none; stroke-linecap: butt; stroke-dashoffset: 0; stroke-linejoin: miter; stroke-miterlimit: 4; fill: rgb(71,28,156); fill-opacity: 0.89; fill-rule: nonzero; opacity: 1;" vector-effect="non-scaling-stroke"  transform=" translate(-16.8, -19.32)" d="M 0 38.642 L 0 0 L 33.602 0 L 33.602 38.642 z" stroke-linecap="round" />
</g>
		<g transform="matrix(0.4 0 0 0.4 8.11 -5.13)" id="PC2fvFbPtNJ3hpPEZ0hsB"  >
<path style="stroke: rgb(239,16,77); stroke-opacity: 0.88; stroke-width: 0.5; stroke-dasharray: none; stroke-linecap: butt; stroke-dashoffset: 0; stroke-linejoin: miter; stroke-miterlimit: 4; fill: rgb(71,28,156); fill-opacity: 0.89; fill-rule: nonzero; opacity: 1;" vector-effect="non-scaling-stroke"  transform=" translate(-16.8, -19.32)" d="M 0 38.642 L 0 0 L 33.602 0 L 33.602 38.642 z" stroke-linecap="round" />
</g>
		<g transform="matrix(0.4 0 0 0.4 -32.51 17.36)" id="EHrjQIgm7fygwFSRIVP3K"  >
<path style="stroke: rgb(239,16,77); stroke-opacity: 0.88; stroke-width: 0.5; stroke-dasharray: none; stroke-linecap: butt; stroke-dashoffset: 0; stroke-linejoin: miter; stroke-miterlimit: 4; fill: rgb(71,28,156); fill-opacity: 0.89; fill-rule: nonzero; opacity: 1;" vector-effect="non-scaling-stroke"  transform=" translate(-16.8, -19.32)" d="M 0 38.642 L 0 0 L 33.602 0 L 33.602 38.642 z" stroke-linecap="round" />
</g>
		<g transform="matrix(0.4 0 0 0.4 -11.87 17.36)" id="18dJw-ZmhU4Xshpz453zr"  >
<path style="stroke: rgb(239,16,77); stroke-opacity: 0.88; stroke-width: 0.5; stroke-dasharray: none; stroke-linecap: butt; stroke-dashoffset: 0; stroke-linejoin: miter; stroke-miterlimit: 4; fill: rgb(71,28,156); fill-opacity: 0.89; fill-rule: nonzero; opacity: 1;" vector-effect="non-scaling-stroke"  transform=" translate(-16.8, -19.32)" d="M 0 38.642 L 0 0 L 33.602 0 L 33.602 38.642 z" stroke-linecap="round" />
</g>
		<g transform="matrix(0.4 0 0 0.4 29.59 17.36)" id="DqjARyTKkFtIznHfcSwwz"  >
<path style="stroke: rgb(239,16,77); stroke-opacity: 0.88; stroke-width: 0.5; stroke-dasharray: none; stroke-linecap: butt; stroke-dashoffset: 0; stroke-linejoin: miter; stroke-miterlimit: 4; fill: rgb(71,28,156); fill-opacity: 0.89; fill-rule: nonzero; opacity: 1;" vector-effect="non-scaling-stroke"  transform=" translate(-16.8, -19.32)" d="M 0 38.642 L 0 0 L 33.602 0 L 33.602 38.642 z" stroke-linecap="round" />
</g>
		<g transform="matrix(0.4 0 0 0.4 8.28 17.36)" id="Xf3bIe_Ueiff_a2eAA1Np"  >
<path style="stroke: rgb(239,16,77); stroke-opacity: 0.88; stroke-width: 0.5; stroke-dasharray: none; stroke-linecap: butt; stroke-dashoffset: 0; stroke-linejoin: miter; stroke-miterlimit: 4; fill: rgb(71,28,156); fill-opacity: 0.89; fill-rule: nonzero; opacity: 1;" vector-effect="non-scaling-stroke"  transform=" translate(-16.8, -19.32)" d="M 0 38.642 L 0 0 L 33.602 0 L 33.602 38.642 z" stroke-linecap="round" />
</g>
		<g transform="matrix(0.4 0 0 0.4 -32.34 39.85)" id="e0FtGVAeFCx4_0C8rfzHG"  >
<path style="stroke: rgb(239,16,77); stroke-opacity: 0.88; stroke-width: 0.5; stroke-dasharray: none; stroke-linecap: butt; stroke-dashoffset: 0; stroke-linejoin: miter; stroke-miterlimit: 4; fill: rgb(71,28,156); fill-opacity: 0.89; fill-rule: nonzero; opacity: 1;" vector-effect="non-scaling-stroke"  transform=" translate(-16.8, -19.32)" d="M 0 38.642 L 0 0 L 33.602 0 L 33.602 38.642 z" stroke-linecap="round" />
</g>
		<g transform="matrix(0.4 0 0 0.4 -11.7 39.85)" id="-Nb2WgbgUcYbq_3r0-s4D"  >
<path style="stroke: rgb(239,16,77); stroke-opacity: 0.88; stroke-width: 0.5; stroke-dasharray: none; stroke-linecap: butt; stroke-dashoffset: 0; stroke-linejoin: miter; stroke-miterlimit: 4; fill: rgb(71,28,156); fill-opacity: 0.89; fill-rule: nonzero; opacity: 1;" vector-effect="non-scaling-stroke"  transform=" translate(-16.8, -19.32)" d="M 0 38.642 L 0 0 L 33.602 0 L 33.602 38.642 z" stroke-linecap="round" />
</g>
		<g transform="matrix(0.4 0 0 0.4 29.76 39.85)" id="KHYcDF6K1zdJ_F_DbsprE"  >
<path style="stroke: rgb(239,16,77); stroke-opacity: 0.88; stroke-width: 0.5; stroke-dasharray: none; stroke-linecap: butt; stroke-dashoffset: 0; stroke-linejoin: miter; stroke-miterlimit: 4; fill: rgb(71,28,156); fill-opacity: 0.89; fill-rule: nonzero; opacity: 1;" vector-effect="non-scaling-stroke"  transform=" translate(-16.8, -19.32)" d="M 0 38.642 L 0 0 L 33.602 0 L 33.602 38.642 z" stroke-linecap="round" />
</g>
		<g transform="matrix(0.4 0 0 0.4 8.44 39.85)" id="9N9qjuuTJlIY84W7M4U-y"  >
<path style="stroke: rgb(239,16,77); stroke-opacity: 0.88; stroke-width: 0.5; stroke-dasharray: none; stroke-linecap: butt; stroke-dashoffset: 0; stroke-linejoin: miter; stroke-miterlimit: 4; fill: rgb(71,28,156); fill-opacity: 0.89; fill-rule: nonzero; opacity: 1;" vector-effect="non-scaling-stroke"  transform=" translate(-16.8, -19.32)" d="M 0 38.642 L 0 0 L 33.602 0 L 33.602 38.642 z" stroke-linecap="round" />
</g>
		<g transform="matrix(0.4 0 0 0.4 -9.43 71.53)" id="p4TUAfcLdKVUmK5bGsPgl"  >
<path style="stroke: rgb(239,16,77); stroke-opacity: 0.88; stroke-width: 0.5; stroke-dasharray: none; stroke-linecap: butt; stroke-dashoffset: 0; stroke-linejoin: miter; stroke-miterlimit: 4; fill: rgb(170,0,0); fill-opacity: 0.89; fill-rule: nonzero; opacity: 1;" vector-effect="non-scaling-stroke"  transform=" translate(-16.8, -38.22)" d="M 0 76.444 L 0 0 L 33.602 0 L 33.602 76.444 z" stroke-linecap="round" />
</g>
		<g transform="matrix(0.4 0 0 0.4 6.68 71.7)" id="dqG7sVPt4ux48bVSuxk5T"  >
<path style="stroke: rgb(239,16,77); stroke-opacity: 0.88; stroke-width: 0.5; stroke-dasharray: none; stroke-linecap: butt; stroke-dashoffset: 0; stroke-linejoin: miter; stroke-miterlimit: 4; fill: rgb(170,0,0); fill-opacity: 0.89; fill-rule: nonzero; opacity: 1;" vector-effect="non-scaling-stroke"  transform=" translate(-16.8, -38.22)" d="M 0 76.444 L 0 0 L 33.602 0 L 33.602 76.444 z" stroke-linecap="round" />
</g>
		<g transform="matrix(0.4 0 0 0.4 0 75.64)" id="WVTmobnMH-p47cPxqFDzA"  >
<path style="stroke: none; stroke-width: 1; stroke-dasharray: none; stroke-linecap: butt; stroke-dashoffset: 0; stroke-linejoin: miter; stroke-miterlimit: 4; fill: rgb(0,97,0); fill-rule: nonzero; opacity: 1;" vector-effect="non-scaling-stroke"  transform=" translate(-312.34, -783.01)" d="M 56.825 816.25 C 62.265 816.42 68.896 735.63 74.337 735.66 C 82.01400000000001 735.68 88.50200000000001 816.47 96.179 816.47 C 103.2 816.49 110.22 816.45 117.24000000000001 816.38 C 122.15 816.36 127.06 816.36 131.97 816.35 C 136.92 816.37 138.32 737.36 143.27 737.36 C 147.95000000000002 737.34 156.18 816.35 160.86 816.35 C 165.29000000000002 816.36 169.71 816.34 174.14000000000001 816.33 C 178.16000000000003 816.32 182.19000000000003 816.33 186.21 816.34 C 190.16 816.34 194.11 816.32 198.06 816.3100000000001 C 201.95 816.34 205.83 816.32 209.72 816.32 C 213.18 816.3100000000001 216.64 816.3100000000001 220.11 816.3000000000001 L 230.18 816.3000000000001 C 234.45000000000002 816.97 238.61 818.1700000000001 242.8 819.2 C 248.19 820.4000000000001 253.48000000000002 821.94 258.84000000000003 823.24 C 264.75000000000006 824.4300000000001 270.76000000000005 824.59 276.76000000000005 824.77 C 282.29 824.84 287.82000000000005 824.8299999999999 293.35 824.8 C 297.48 824.75 301.61 824.7299999999999 305.74 824.7099999999999 C 309.67 824.7199999999999 313.61 824.7299999999999 317.54 824.7399999999999 L 330.56 824.7399999999999 C 335.53000000000003 824.7499999999999 340.49 824.7599999999999 345.46 824.7999999999998 C 352.28999999999996 824.8399999999998 359.10999999999996 824.8399999999998 365.94 824.8399999999998 C 372.86 824.8599999999998 379.78 824.8199999999998 386.69 824.8199999999998 C 392.61 825.0999999999998 398.46 824.5799999999998 404.33 823.9099999999999 C 408.41999999999996 823.2999999999998 412.46 822.4199999999998 416.53999999999996 821.7299999999999 C 420.09 821.31 423.65999999999997 821.3799999999999 427.21999999999997 821.3499999999999 C 431.45 820.5099999999999 435.76 820.1499999999999 440.03 819.6899999999999 C 444.97999999999996 819.02 449.91999999999996 818.31 454.85999999999996 817.5799999999999 C 459.28999999999996 816.9799999999999 463.65999999999997 816.0699999999999 468.05999999999995 815.2399999999999 C 471.62999999999994 814.6999999999999 474.63999999999993 731.5399999999998 478.23999999999995 731.4499999999999 C 482.31999999999994 731.77 486.88999999999993 814.41 490.91999999999996 814.04 C 494.66999999999996 813.36 498.46999999999997 813.2199999999999 502.25999999999993 813.01 C 506.05999999999995 812.93 509.8499999999999 812.95 513.65 812.95 C 516.62 812.0500000000001 519.6999999999999 811.86 522.76 811.45 C 525.63 810.8900000000001 530.95 727.27 533.86 726.75 C 538.1800000000001 726.48 540.13 809.66 544.46 809.63 C 549.6500000000001 809.67 554.85 809.64 560.0400000000001 809.62 C 563.7900000000001 809.6 567.5300000000001 809.59 571.2700000000001 809.59 C 574.6200000000001 809.58 577.9800000000001 809.58 581.3400000000001 809.58 L 588.0400000000002 809.58 L 567.9900000000002 824.1500000000001 L 551.2300000000002 824.1500000000001 C 547.5200000000002 824.1400000000001 543.8200000000003 824.1300000000001 540.1100000000002 824.1000000000001 C 534.9300000000003 824.0700000000002 529.7500000000002 824.0100000000001 524.5700000000003 824.1000000000001 C 520.2500000000002 824.2000000000002 515.9100000000003 824.1600000000001 511.6200000000003 824.7300000000001 C 508.71000000000026 825.3500000000001 505.8100000000003 826.0800000000002 502.83000000000027 826.2400000000001 C 499.78000000000026 826.7400000000001 496.72000000000025 827.3400000000001 493.64000000000027 827.4800000000001 C 489.8600000000003 827.5000000000001 486.0700000000003 827.4700000000001 482.3000000000003 827.6600000000001 C 478.5700000000003 827.94 474.8400000000003 828.19 471.1500000000003 828.8000000000001 C 467.0400000000003 829.0200000000001 462.94000000000034 829.3000000000001 458.82000000000033 829.21 C 455.31000000000034 829.37 451.79000000000036 829.4300000000001 448.32000000000033 830.09 C 443.9600000000003 830.9300000000001 439.6000000000003 831.75 435.2100000000003 832.37 C 430.26000000000033 833.02 425.3000000000003 833.67 420.3600000000003 834.4 C 415.9900000000003 834.9 411.6200000000003 835.52 407.2400000000003 835.89 C 403.7300000000003 836 400.2100000000003 836 396.7300000000003 836.5699999999999 C 392.7100000000003 837.3299999999999 388.7100000000003 838.2099999999999 384.6300000000003 838.55 C 378.7500000000003 839.0799999999999 372.8800000000003 839.37 366.9800000000003 839.15 C 360.0700000000003 839.15 353.1700000000003 839.12 346.26000000000033 839.14 C 339.4000000000003 839.13 332.5300000000003 839.14 325.67000000000036 839.18 C 320.6500000000004 839.2099999999999 315.63000000000034 839.2299999999999 310.62000000000035 839.2299999999999 C 306.2700000000003 839.2299999999999 301.93000000000035 839.2299999999999 297.5900000000004 839.2399999999999 C 293.6300000000004 839.2399999999999 289.67000000000036 839.2599999999999 285.7100000000004 839.2699999999999 C 281.6400000000004 839.2599999999999 277.5700000000004 839.2499999999999 273.5000000000004 839.2299999999999 C 267.9700000000004 839.2099999999999 262.4400000000004 839.2699999999999 256.9100000000004 839.0999999999999 C 250.8300000000004 838.81 244.74000000000044 838.5199999999999 238.78000000000043 837.1499999999999 C 233.37000000000043 835.7899999999998 227.96000000000043 834.4299999999998 222.53000000000043 833.1499999999999 C 218.44000000000042 832.1999999999998 214.36000000000044 830.9999999999999 210.14000000000044 830.8699999999999 L 200.06000000000043 830.8699999999999 C 196.61000000000044 830.8699999999999 193.15000000000043 830.8699999999999 189.70000000000044 830.8599999999999 C 185.81000000000046 830.8499999999999 181.93000000000043 830.8299999999999 178.04000000000045 830.8599999999999 C 174.11000000000044 830.8499999999999 170.18000000000043 830.8399999999999 166.25000000000045 830.8399999999999 C 162.22000000000045 830.8399999999999 158.19000000000045 830.8499999999999 154.16000000000045 830.8499999999999 C 149.75000000000045 830.8299999999999 145.35000000000045 830.8199999999999 140.95000000000044 830.8199999999999 C 136.28000000000046 830.8199999999999 131.61000000000044 830.8299999999999 126.94000000000044 830.81 C 121.98000000000044 830.81 117.01000000000045 830.8 112.05000000000044 830.8199999999999 C 107.17000000000044 830.81 102.29000000000043 830.8199999999999 97.41300000000044 830.79 C 90.47300000000044 830.73 83.53400000000043 830.68 76.59400000000043 830.6999999999999 C 68.89100000000043 830.7099999999999 61.18700000000044 830.7099999999999 53.484000000000435 830.7299999999999 C 47.86900000000043 830.7599999999999 42.25300000000043 830.7599999999999 36.640000000000434 830.92 L 56.82500000000043 816.25 z" stroke-linecap="round" />
</g>
		<g transform="matrix(1.27 0.1 -0.16 2.04 66.81 60.32)" id="2V4dQ_KuGjX-HifKE6mxr"  >
<linearGradient id="SVGID_19" gradientUnits="userSpaceOnUse" gradientTransform="matrix(1 0 0 1 0 0)"  x1="189.61" y1="384.75" x2="200.36" y2="386.79">
<stop offset="0%" style="stop-color:rgb(223,104,0);stop-opacity: 0.92982"/>
<stop offset="100%" style="stop-color:rgb(223,104,0);stop-opacity: 0"/>
</linearGradient>
<path style="stroke: url(#SVGID_19); stroke-width: 0.25; stroke-dasharray: none; stroke-linecap: square; stroke-dashoffset: 0; stroke-linejoin: bevel; stroke-miterlimit: 4; fill: rgb(179,97,0); fill-rule: evenodd; opacity: 1;" vector-effect="non-scaling-stroke"  transform=" translate(-192.01, -385.44)" d="M 188.44 391.38 C 184.4493426533825 390.29010950191315 182.10765271044232 387.53601202136525 182.77475254632844 384.71701552339306 C 183.44185238221453 381.89801902542087 186.94413803978694 379.7477302670426 191.24782771300914 379.5148247082564 C 195.55151738623132 379.2819191494703 199.53663244914316 381.02700739826946 200.88901143624904 383.73671445405625 C 202.2413904233549 386.446421509843 200.6090944926931 389.4155817553152 196.94 390.92 L 192.01 385.67 z" stroke-linecap="round" />
</g>
</g>
</g>
</svg>