<?xml version="1.0" encoding="UTF-8" standalone="no" ?>
<!DOCTYPE svg PUBLIC "-//W3C//DTD SVG 1.1//EN" "http://www.w3.org/Graphics/SVG/1.1/DTD/svg11.dtd">
<svg xmlns="http://www.w3.org/2000/svg" xmlns:xlink="http://www.w3.org/1999/xlink" version="1.1" width="500" height="500" viewBox="0 0 500 500" xml:space="preserve">
<desc>Created with Fabric.js 4.6.0</desc>
<defs>
</defs>
<g transform="matrix(4.89 0 0 0.82 250 407.35)" id="DPtyddzezch7zT7cgrw1F"  >
<path style="stroke: rgb(121,223,178); stroke-width: 0; stroke-dasharray: none; stroke-linecap: butt; stroke-dashoffset: 0; stroke-linejoin: miter; stroke-miterlimit: 4; fill: rgb(0,0,0); fill-opacity: 0.8; fill-rule: nonzero; opacity: 1;" vector-effect="non-scaling-stroke"  transform=" translate(0, 0)" d="M 0 -43 C 23.736 -43 43 -23.736 43 0 C 43 23.736 23.736 43 0 43 C -23.736 43 -43 23.736 -43 0 C -43 -23.736 -23.736 -43 0 -43 z" stroke-linecap="round" />
</g>
<g transform="matrix(1 0 0 1 250 250)" id="Sk7tmZhPdyE_cQL5xweA7"  >
<g style="" vector-effect="non-scaling-stroke"   >
		<g transform="matrix(0.6 0 0 0.6 -101.96 23.64)" id="jwQqM2HnXGdQuQmvSD3LD"  >
<path style="stroke: none; stroke-width: 1; stroke-dasharray: none; stroke-linecap: butt; stroke-dashoffset: 0; stroke-linejoin: miter; stroke-miterlimit: 4; fill: rgb(255,189,89); fill-rule: nonzero; opacity: 1;" vector-effect="non-scaling-stroke"  transform=" translate(-74.19, -205.82)" d="M 0 411.648 L 0 0 L 148.376 0 L 148.376 411.648 z" stroke-linecap="round" />
</g>
		<g transform="matrix(0.6 0 0 0.6 63.42 -44.76)" id="RXF6ukQTAWhib1fDv2oeA"  >
<path style="stroke: none; stroke-width: 1; stroke-dasharray: none; stroke-linecap: butt; stroke-dashoffset: 0; stroke-linejoin: miter; stroke-miterlimit: 4; fill: rgb(255,87,87); fill-rule: nonzero; opacity: 1;" vector-effect="non-scaling-stroke"  transform=" translate(0, 0)" d="M 76.268 132.702 L 76.268 -132.702 L -76.268 -132.702 L -76.268 -1.0449999999999875 L -24.034 -1.0449999999999875 L -24.034 132.70200000000003 z" stroke-linecap="round" />
</g>
		<g transform="matrix(0.6 0 0 0.6 -4.35 50.36)" id="ap8CzuC1dyU_ak75Um02j"  >
<path style="stroke: none; stroke-width: 1; stroke-dasharray: none; stroke-linecap: butt; stroke-dashoffset: 0; stroke-linejoin: miter; stroke-miterlimit: 4; fill: rgb(82,113,255); fill-rule: nonzero; opacity: 1;" vector-effect="non-scaling-stroke"  transform=" translate(-248.69, -340.64)" d="M 338.547 309.381 L 338.547 179.72199999999998 L 158.824 179.72199999999998 L 158.824 501.551 L 338.547 501.551 z" stroke-linecap="round" />
</g>
		<g transform="matrix(0.6 0 0 0.6 -4.35 -19.89)" id="TPNZuFZRgv20lhRXPfFa5"  >
<path style="stroke: none; stroke-width: 1; stroke-dasharray: none; stroke-linecap: butt; stroke-dashoffset: 0; stroke-linejoin: miter; stroke-miterlimit: 4; fill: rgb(15,142,227); fill-rule: nonzero; opacity: 1;" vector-effect="non-scaling-stroke"  transform=" translate(-58.5, -14.62)" d="M 0 29.235 L 0 0 L 117.008 0 L 117.008 29.235 z" stroke-linecap="round" />
</g>
		<g transform="matrix(0.6 0 0 0.6 -4.35 18.8)" id="vVMd1YHTYqi2HVyY6TOeX"  >
<path style="stroke: none; stroke-width: 1; stroke-dasharray: none; stroke-linecap: butt; stroke-dashoffset: 0; stroke-linejoin: miter; stroke-miterlimit: 4; fill: rgb(15,142,227); fill-rule: nonzero; opacity: 1;" vector-effect="non-scaling-stroke"  transform=" translate(-58.5, -14.62)" d="M 0 29.235 L 0 0 L 117.008 0 L 117.008 29.235 z" stroke-linecap="round" />
</g>
		<g transform="matrix(0.6 0 0 0.6 -4.35 57.49)" id="1dKNsFDspJ4Ji6uAiBo76"  >
<path style="stroke: none; stroke-width: 1; stroke-dasharray: none; stroke-linecap: butt; stroke-dashoffset: 0; stroke-linejoin: miter; stroke-miterlimit: 4; fill: rgb(15,142,227); fill-rule: nonzero; opacity: 1;" vector-effect="non-scaling-stroke"  transform=" translate(-58.5, -14.62)" d="M 0 29.235 L 0 0 L 117.008 0 L 117.008 29.235 z" stroke-linecap="round" />
</g>
		<g transform="matrix(0.6 0 0 0.6 -4.35 96.18)" id="2UCKcc15C2rFLzA9HzcXi"  >
<path style="stroke: none; stroke-width: 1; stroke-dasharray: none; stroke-linecap: butt; stroke-dashoffset: 0; stroke-linejoin: miter; stroke-miterlimit: 4; fill: rgb(15,142,227); fill-rule: nonzero; opacity: 1;" vector-effect="non-scaling-stroke"  transform=" translate(-58.5, -14.62)" d="M 0 29.235 L 0 0 L 117.008 0 L 117.008 29.235 z" stroke-linecap="round" />
</g>
		<g transform="matrix(0.6 0 0 0.6 82.69 90.15)" id="BS3AbdqEBWzK-Z2SmxwS1"  >
<path style="stroke: none; stroke-width: 1; stroke-dasharray: none; stroke-linecap: butt; stroke-dashoffset: 0; stroke-linejoin: miter; stroke-miterlimit: 4; fill: rgb(255,189,89); fill-rule: nonzero; opacity: 1;" vector-effect="non-scaling-stroke"  transform=" translate(-106.58, -94.04)" d="M 0 188.082 L 0 0 L 213.159 0 L 213.159 188.082 z" stroke-linecap="round" />
</g>
		<g transform="matrix(0.6 0 0 0.6 56.2 74.94)" id="YbGPbs0Hf3o-VdW4UI2XY"  >
<path style="stroke: none; stroke-width: 1; stroke-dasharray: none; stroke-linecap: butt; stroke-dashoffset: 0; stroke-linejoin: miter; stroke-miterlimit: 4; fill: rgb(15,142,227); fill-rule: nonzero; opacity: 1;" vector-effect="non-scaling-stroke"  transform=" translate(-27.61, -29.75)" d="M 0 59.494 L 0 0 L 55.227 0 L 55.227 59.494 z" stroke-linecap="round" />
</g>
		<g transform="matrix(0.6 0 0 0.6 114.99 74.94)" id="RJY4fD6jdjI4h-o_g7BBY"  >
<path style="stroke: none; stroke-width: 1; stroke-dasharray: none; stroke-linecap: butt; stroke-dashoffset: 0; stroke-linejoin: miter; stroke-miterlimit: 4; fill: rgb(15,142,227); fill-rule: nonzero; opacity: 1;" vector-effect="non-scaling-stroke"  transform=" translate(-27.61, -29.75)" d="M 0 59.494 L 0 0 L 55.227 0 L 55.227 59.494 z" stroke-linecap="round" />
</g>
		<g transform="matrix(0.6 0 0 0.6 114.99 130.27)" id="c1QZqL4--cROitBdpmxyv"  >
<path style="stroke: none; stroke-width: 1; stroke-dasharray: none; stroke-linecap: butt; stroke-dashoffset: 0; stroke-linejoin: miter; stroke-miterlimit: 4; fill: rgb(15,142,227); fill-rule: nonzero; opacity: 1;" vector-effect="non-scaling-stroke"  transform=" translate(-27.61, -26.61)" d="M 0 53.225 L 0 0 L 55.227 0 L 55.227 53.225 z" stroke-linecap="round" />
</g>
		<g transform="matrix(0.6 0 0 0.6 56.2 130.27)" id="XIJG8lfi-xeOaftbgDi8Y"  >
<path style="stroke: none; stroke-width: 1; stroke-dasharray: none; stroke-linecap: butt; stroke-dashoffset: 0; stroke-linejoin: miter; stroke-miterlimit: 4; fill: rgb(15,142,227); fill-rule: nonzero; opacity: 1;" vector-effect="non-scaling-stroke"  transform=" translate(-27.61, -26.61)" d="M 0 53.225 L 0 0 L 55.227 0 L 55.227 53.225 z" stroke-linecap="round" />
</g>
		<g transform="matrix(0.6 0 0 0.6 0 0)" id="J7kvIMy-smKoJe1HFUSmD"  >
<path style="stroke: none; stroke-width: 1; stroke-dasharray: none; stroke-linecap: butt; stroke-dashoffset: 0; stroke-linejoin: miter; stroke-miterlimit: 4; fill: rgb(0,0,0); fill-rule: nonzero; opacity: 1;" vector-effect="non-scaling-stroke"  transform=" translate(-256, -256)" d="M 501.551 303.02 L 449.298 303.02 L 449.298 48.065 C 449.298 42.294 444.619 37.616 438.849 37.616 L 373.03 37.616 L 373.03 10.449 C 373.03 4.678 368.351 0 362.581 0 C 356.81100000000004 0 352.132 4.678 352.132 10.449 L 352.132 37.616 L 286.314 37.616 C 280.54400000000004 37.616 275.865 42.294 275.865 48.065 L 275.865 169.273 L 169.273 169.273 L 169.273 89.905 C 169.273 84.134 164.594 79.456 158.82399999999998 79.456 L 10.449 79.456 C 4.679 79.456 0 84.134 0 89.905 L 0 501.55100000000004 C 0 507.322 4.679 512 10.449 512 L 501.551 512 C 507.32099999999997 512 512 507.322 512 501.551 L 512 313.469 C 512 307.698 507.321 303.02 501.551 303.02 z M 296.762 58.514 L 428.4 58.514 L 428.4 303.02 L 348.996 303.02 L 348.996 179.722 C 348.996 173.95100000000002 344.317 169.273 338.54699999999997 169.273 L 296.763 169.273 L 296.763 58.514 z M 20.898 477.518 L 78.219 477.518 C 83.98899999999999 477.518 88.66799999999999 472.84 88.66799999999999 467.06899999999996 C 88.66799999999999 461.29799999999994 83.98899999999999 456.61999999999995 78.219 456.61999999999995 L 20.898 456.61999999999995 L 20.898 430.65799999999996 L 78.219 430.65799999999996 C 83.98899999999999 430.65799999999996 88.66799999999999 425.97999999999996 88.66799999999999 420.20899999999995 C 88.66799999999999 414.43799999999993 83.98899999999999 409.75999999999993 78.219 409.75999999999993 L 20.898 409.75999999999993 L 20.898 383.79799999999994 L 78.219 383.79799999999994 C 83.98899999999999 383.79799999999994 88.66799999999999 379.11999999999995 88.66799999999999 373.34899999999993 C 88.66799999999999 367.5779999999999 83.98899999999999 362.8999999999999 78.219 362.8999999999999 L 20.898 362.8999999999999 L 20.898 336.94 L 78.219 336.94 C 83.98899999999999 336.94 88.66799999999999 332.262 88.66799999999999 326.491 C 88.66799999999999 320.71999999999997 83.98899999999999 316.042 78.219 316.042 L 20.898 316.042 L 20.898 290.08 L 78.219 290.08 C 83.98899999999999 290.08 88.66799999999999 285.402 88.66799999999999 279.631 C 88.66799999999999 273.85999999999996 83.98899999999999 269.18199999999996 78.219 269.18199999999996 L 20.898 269.18199999999996 L 20.898 243.22099999999995 L 78.219 243.22099999999995 C 83.98899999999999 243.22099999999995 88.66799999999999 238.54299999999995 88.66799999999999 232.77199999999993 C 88.66799999999999 227.00099999999992 83.98899999999999 222.32299999999992 78.219 222.32299999999992 L 20.898 222.32299999999992 L 20.898 196.36099999999993 L 78.219 196.36099999999993 C 83.98899999999999 196.36099999999993 88.66799999999999 191.68299999999994 88.66799999999999 185.91199999999992 C 88.66799999999999 180.1409999999999 83.98899999999999 175.4629999999999 78.219 175.4629999999999 L 20.898 175.4629999999999 L 20.898 149.50099999999992 L 78.219 149.50099999999992 C 83.98899999999999 149.50099999999992 88.66799999999999 144.82299999999992 88.66799999999999 139.0519999999999 C 88.66799999999999 133.2809999999999 83.98899999999999 128.6029999999999 78.219 128.6029999999999 L 20.898 128.6029999999999 L 20.898 100.3529999999999 L 148.376 100.3529999999999 L 148.376 179.7209999999999 L 148.376 491.1009999999999 L 20.898 491.1009999999999 L 20.898 477.518 z M 169.273 190.171 L 328.097 190.171 L 328.097 303.02 L 288.39099999999996 303.02 C 282.621 303.02 277.94199999999995 307.698 277.94199999999995 313.469 L 277.94199999999995 328.13 L 190.18199999999996 328.13 C 184.41199999999995 328.13 179.73299999999995 332.808 179.73299999999995 338.579 L 179.73299999999995 367.814 C 179.73299999999995 373.58500000000004 184.41199999999995 378.26300000000003 190.18199999999996 378.26300000000003 L 277.94199999999995 378.26300000000003 L 277.94199999999995 392.793 L 190.39799999999997 392.793 C 184.62799999999996 392.793 179.94899999999996 397.471 179.94899999999996 403.242 L 179.94899999999996 432.47700000000003 C 179.94899999999996 438.24800000000005 184.62799999999996 442.92600000000004 190.39799999999997 442.92600000000004 L 277.94199999999995 442.92600000000004 L 277.94199999999995 491.10100000000006 L 169.273 491.10100000000006 L 169.273 190.171 z M 277.943 357.366 L 200.63199999999998 357.366 L 200.63199999999998 349.029 L 277.943 349.029 L 277.943 357.366 z M 277.943 422.03 L 200.84799999999998 422.03 L 200.84799999999998 413.693 L 277.943 413.693 L 277.943 422.03 z M 333.29 491.102 L 333.29 455.66499999999996 L 368.86 455.66499999999996 L 368.86 491.102 L 338.546 491.102 L 333.29 491.102 z M 467.047 491.102 L 431.47700000000003 491.102 L 431.47700000000003 455.66499999999996 L 467.047 455.66499999999996 L 467.047 491.102 z M 491.102 491.102 L 487.945 491.102 L 487.945 445.21599999999995 C 487.945 439.44499999999994 483.266 434.76699999999994 477.496 434.76699999999994 L 421.02799999999996 434.76699999999994 C 415.258 434.76699999999994 410.57899999999995 439.44499999999994 410.57899999999995 445.21599999999995 L 410.57899999999995 491.102 L 389.75699999999995 491.102 L 389.75699999999995 445.21599999999995 C 389.75699999999995 439.44499999999994 385.078 434.76699999999994 379.30799999999994 434.76699999999994 L 322.84 434.76699999999994 C 317.07 434.76699999999994 312.39099999999996 439.44499999999994 312.39099999999996 445.21599999999995 L 312.39099999999996 491.102 L 298.84099999999995 491.102 L 298.84099999999995 323.918 L 491.102 323.918 L 491.102 491.102 z" stroke-linecap="round" />
</g>
		<g transform="matrix(0.6 0 0 0.6 56.57 74.05)" id="gGVCO31gWlJl1y_KMDxtk"  >
<path style="stroke: none; stroke-width: 1; stroke-dasharray: none; stroke-linecap: butt; stroke-dashoffset: 0; stroke-linejoin: miter; stroke-miterlimit: 4; fill: rgb(0,0,0); fill-rule: nonzero; opacity: 1;" vector-effect="non-scaling-stroke"  transform=" translate(-351.08, -380.45)" d="M 379.309 341.747 L 322.841 341.747 C 317.071 341.747 312.392 346.425 312.392 352.196 L 312.392 408.70700000000005 C 312.392 414.47800000000007 317.07099999999997 419.15600000000006 322.841 419.15600000000006 C 328.61100000000005 419.15600000000006 333.29 414.47800000000007 333.29 408.70700000000005 L 333.29 362.64500000000004 L 368.86 362.64500000000004 L 368.86 374.254 C 368.86 380.02500000000003 373.539 384.70300000000003 379.309 384.70300000000003 C 385.07900000000006 384.70300000000003 389.75800000000004 380.02500000000003 389.75800000000004 374.254 L 389.75800000000004 352.196 C 389.758 346.425 385.079 341.747 379.309 341.747 z" stroke-linecap="round" />
</g>
		<g transform="matrix(0.6 0 0 0.6 72.63 90.77)" id="fwl5PnnJnzvvKMBQy0QCE"  >
<path style="stroke: none; stroke-width: 1; stroke-dasharray: none; stroke-linecap: butt; stroke-dashoffset: 0; stroke-linejoin: miter; stroke-miterlimit: 4; fill: rgb(0,0,0); fill-rule: nonzero; opacity: 1;" vector-effect="non-scaling-stroke"  transform=" translate(-378.07, -408.56)" d="M 378.068 397.967 C 372.298 397.967 367.61899999999997 402.645 367.61899999999997 408.416 L 367.61899999999997 408.70799999999997 C 367.61899999999997 414.479 372.29799999999994 419.157 378.068 419.157 C 383.838 419.157 388.517 414.479 388.517 408.70799999999997 L 388.517 408.416 C 388.517 402.645 383.839 397.967 378.068 397.967 z" stroke-linecap="round" />
</g>
		<g transform="matrix(0.6 0 0 0.6 114.99 74.05)" id="ps4J3bjfJij3a9juoJXat"  >
<path style="stroke: none; stroke-width: 1; stroke-dasharray: none; stroke-linecap: butt; stroke-dashoffset: 0; stroke-linejoin: miter; stroke-miterlimit: 4; fill: rgb(0,0,0); fill-rule: nonzero; opacity: 1;" vector-effect="non-scaling-stroke"  transform=" translate(-449.26, -380.45)" d="M 410.58 352.196 L 410.58 408.70700000000005 C 410.58 414.47800000000007 415.25899999999996 419.15600000000006 421.029 419.15600000000006 C 426.79900000000004 419.15600000000006 431.478 414.47800000000007 431.478 408.70700000000005 L 431.478 362.64500000000004 L 467.048 362.64500000000004 L 467.048 374.254 C 467.048 380.02500000000003 471.727 384.70300000000003 477.497 384.70300000000003 C 483.26700000000005 384.70300000000003 487.946 380.02500000000003 487.946 374.254 L 487.946 352.196 C 487.946 346.425 483.26700000000005 341.747 477.497 341.747 L 421.029 341.747 C 415.258 341.747 410.58 346.425 410.58 352.196 z" stroke-linecap="round" />
</g>
		<g transform="matrix(0.6 0 0 0.6 131.06 90.77)" id="7oLWrI4FrjcOhm23OUYLe"  >
<path style="stroke: none; stroke-width: 1; stroke-dasharray: none; stroke-linecap: butt; stroke-dashoffset: 0; stroke-linejoin: miter; stroke-miterlimit: 4; fill: rgb(0,0,0); fill-rule: nonzero; opacity: 1;" vector-effect="non-scaling-stroke"  transform=" translate(-476.26, -408.56)" d="M 476.256 397.967 C 470.486 397.967 465.80699999999996 402.645 465.80699999999996 408.416 L 465.80699999999996 408.70799999999997 C 465.80699999999996 414.479 470.48599999999993 419.157 476.256 419.157 C 482.026 419.157 486.705 414.479 486.705 408.70799999999997 L 486.705 408.416 C 486.705 402.645 482.026 397.967 476.256 397.967 z" stroke-linecap="round" />
</g>
		<g transform="matrix(0.6 0 0 0.6 85.18 -50.36)" id="l6VMPhL-kGzqsTHddq1Ll"  >
<path style="stroke: none; stroke-width: 1; stroke-dasharray: none; stroke-linecap: butt; stroke-dashoffset: 0; stroke-linejoin: miter; stroke-miterlimit: 4; fill: rgb(0,0,0); fill-rule: nonzero; opacity: 1;" vector-effect="non-scaling-stroke"  transform=" translate(-399.15, -171.36)" d="M 399.152 190.171 C 404.92199999999997 190.171 409.601 185.493 409.601 179.72199999999998 L 409.601 163.004 C 409.601 157.233 404.922 152.55499999999998 399.152 152.55499999999998 C 393.382 152.55499999999998 388.703 157.23299999999998 388.703 163.004 L 388.703 179.72199999999998 C 388.703 185.493 393.382 190.171 399.152 190.171 z" stroke-linecap="round" />
</g>
		<g transform="matrix(0.6 0 0 0.6 85.18 -11.19)" id="xFVpwxkav7gC0zeUKROnl"  >
<path style="stroke: none; stroke-width: 1; stroke-dasharray: none; stroke-linecap: butt; stroke-dashoffset: 0; stroke-linejoin: miter; stroke-miterlimit: 4; fill: rgb(0,0,0); fill-rule: nonzero; opacity: 1;" vector-effect="non-scaling-stroke"  transform=" translate(-399.15, -237.19)" d="M 399.152 256 C 404.92199999999997 256 409.601 251.322 409.601 245.551 L 409.601 228.833 C 409.601 223.062 404.922 218.384 399.152 218.384 C 393.382 218.384 388.703 223.06199999999998 388.703 228.833 L 388.703 245.551 C 388.703 251.322 393.382 256 399.152 256 z" stroke-linecap="round" />
</g>
		<g transform="matrix(0.6 0 0 0.6 -4.35 -19.89)" id="k0mb9u69daqYoyT_KqoBb"  >
<path style="stroke: none; stroke-width: 1; stroke-dasharray: none; stroke-linecap: butt; stroke-dashoffset: 0; stroke-linejoin: miter; stroke-miterlimit: 4; fill: rgb(0,0,0); fill-rule: nonzero; opacity: 1;" vector-effect="non-scaling-stroke"  transform=" translate(-248.69, -222.57)" d="M 190.183 247.641 L 307.19 247.641 C 312.96 247.641 317.639 242.963 317.639 237.19199999999998 L 317.639 207.957 C 317.639 202.186 312.96000000000004 197.50799999999998 307.19 197.50799999999998 L 190.183 197.50799999999998 C 184.41299999999998 197.50799999999998 179.73399999999998 202.18599999999998 179.73399999999998 207.957 L 179.73399999999998 237.192 C 179.734 242.963 184.412 247.641 190.183 247.641 z M 200.632 218.406 L 296.741 218.406 L 296.741 226.743 L 200.632 226.743 L 200.632 218.406 L 200.632 218.406 z" stroke-linecap="round" />
</g>
		<g transform="matrix(0.6 0 0 0.6 -4.35 18.8)" id="vUDH4_2ZUZH-RJlOUQq41"  >
<path style="stroke: none; stroke-width: 1; stroke-dasharray: none; stroke-linecap: butt; stroke-dashoffset: 0; stroke-linejoin: miter; stroke-miterlimit: 4; fill: rgb(0,0,0); fill-rule: nonzero; opacity: 1;" vector-effect="non-scaling-stroke"  transform=" translate(-248.69, -287.6)" d="M 190.183 312.664 L 252.168 312.664 C 257.938 312.664 262.617 307.986 262.617 302.215 C 262.617 296.44399999999996 257.93800000000005 291.76599999999996 252.168 291.76599999999996 L 200.632 291.76599999999996 L 200.632 283.429 L 296.741 283.429 L 296.741 284.387 C 296.741 290.158 301.41999999999996 294.836 307.19 294.836 C 312.96 294.836 317.639 290.158 317.639 284.387 L 317.639 272.98 C 317.639 267.209 312.96000000000004 262.531 307.19 262.531 L 190.183 262.531 C 184.41299999999998 262.531 179.73399999999998 267.209 179.73399999999998 272.98 L 179.73399999999998 302.21500000000003 C 179.734 307.986 184.412 312.664 190.183 312.664 z" stroke-linecap="round" />
</g>
</g>
</g>
<g transform="matrix(0.6 0 0 0.6 291.66 161.41)" id="A1eVN8cHvdii-0vhc2bSq"  >
<path style="stroke: none; stroke-width: 1; stroke-dasharray: none; stroke-linecap: butt; stroke-dashoffset: 0; stroke-linejoin: miter; stroke-miterlimit: 4; fill: rgb(0,0,0); fill-rule: nonzero; opacity: 1;" vector-effect="non-scaling-stroke"  transform=" translate(-326.01, -107.11)" d="M 326.009 88.303 C 320.23900000000003 88.303 315.56 92.981 315.56 98.752 L 315.56 115.47 C 315.56 121.241 320.239 125.919 326.009 125.919 C 331.779 125.919 336.458 121.241 336.458 115.47 L 336.458 98.752 C 336.458 92.981 331.779 88.303 326.009 88.303 z" stroke-linecap="round" />
</g>
<g transform="matrix(0.6 0 0 0.6 313.42 161.41)" id="Z6MZjWtuhCfZdwpcbHG7M"  >
<path style="stroke: none; stroke-width: 1; stroke-dasharray: none; stroke-linecap: butt; stroke-dashoffset: 0; stroke-linejoin: miter; stroke-miterlimit: 4; fill: rgb(0,0,0); fill-rule: nonzero; opacity: 1;" vector-effect="non-scaling-stroke"  transform=" translate(-362.58, -107.11)" d="M 362.581 125.92 C 368.351 125.92 373.03000000000003 121.242 373.03000000000003 115.471 L 373.03000000000003 98.752 C 373.03000000000003 92.981 368.35100000000006 88.303 362.581 88.303 C 356.811 88.303 352.132 92.981 352.132 98.752 L 352.132 115.47 C 352.132 121.242 356.811 125.92 362.581 125.92 z" stroke-linecap="round" />
</g>
<g transform="matrix(0.6 0 0 0.6 335.18 161.41)" id="_vF03Yelw-EbmJbOGrFOr"  >
<path style="stroke: none; stroke-width: 1; stroke-dasharray: none; stroke-linecap: butt; stroke-dashoffset: 0; stroke-linejoin: miter; stroke-miterlimit: 4; fill: rgb(0,0,0); fill-rule: nonzero; opacity: 1;" vector-effect="non-scaling-stroke"  transform=" translate(-399.15, -107.11)" d="M 399.152 125.92 C 404.92199999999997 125.92 409.601 121.242 409.601 115.471 L 409.601 98.752 C 409.601 92.981 404.922 88.303 399.152 88.303 C 393.382 88.303 388.703 92.981 388.703 98.752 L 388.703 115.47 C 388.703 121.242 393.382 125.92 399.152 125.92 z" stroke-linecap="round" />
</g>
<g transform="matrix(1.77 0 0 0.34 361.38 459.99)" id="ym8vcgE5EtZNV4LCaZ0Qw"  >
<path style="stroke: rgb(104,29,190); stroke-width: 0; stroke-dasharray: none; stroke-linecap: butt; stroke-dashoffset: 0; stroke-linejoin: miter; stroke-miterlimit: 4; fill: rgb(0,0,0); fill-opacity: 0.8; fill-rule: nonzero; opacity: 1;" vector-effect="non-scaling-stroke"  transform=" translate(0, 0)" d="M 0 -50 C 27.6 -50 50 -27.6 50 0 C 50 27.6 27.6 50 0 50 C -27.6 50 -50 27.6 -50 0 C -50 -27.6 -27.6 -50 0 -50 z" stroke-linecap="round" />
</g>
</svg>