<svg xmlns="http://www.w3.org/2000/svg" xmlns:xlink="http://www.w3.org/1999/xlink" xmlns:lucid="lucid" width="1744.44" height="865.82"><g transform="translate(-80.00000000000003 -180)" lucid:page-tab-id="0_0"><path d="M226.37 200.84c-1.6.84-1.6 26.46-1.6 57.12v55.44l-24.2.84-25.78.42v94.08c-1.63 73.5-1.63 94.5-3.24 94.08-1.6 0-4.83-.42-6.45-.42-4.82-.42-4.82-1.26-3.2-42 1.6-29.4 1.6-41.58 0-41.58-1.62 0-3.23 2.1-3.23 4.2-1.62 2.94-3.23 4.62-6.45 4.62-3.23 0-4.84 2.52-6.45 7.56l-4.84 7.56 6.45.42h8.06c1.6-.42 1.6 6.72 1.6 29.4v29.4h-29v15.12l135.4.42h135.4V506.6h-24.17c-12.9 0-24.18-.84-25.8-2.1-1.6-1.26-3.22-7.14-3.22-13.44-1.6-10.5-1.6-11.76 4.84-16.38 1.6-2.94 6.44-5.04 6.44-5.46 8.06-.42 11.28-18.48 6.44-39.9-6.44-27.72-6.44-27.3-22.56-23.52-8.06 2.1-11.3 4.2-16.12 11.34l-6.45 9.24V313.4l-1.6-112.56-45.15-.84c-24.18 0-45.13.42-45.13.84zM311.8 355.4v149.1H286V390.26h11.3c9.67 0 11.28 0 11.28-5.46v-6.3l-29.02 1.68-29 1.68-1.62-33.6v-33.6l-9.68-.42c-6.44-.84-8.06-1.68-8.06-4.2 0-1.68 1.62-2.94 3.23-2.94 3.22 0 6.45-5.04 4.83-7.56-1.6-.42-3.22-1.26-4.83-1.26-3.23 0-3.23-1.68-3.23-5.46 0-4.62 0-5.46 4.84-5.46 3.22 0 4.84-1.26 4.84-4.62 0-3.78-3.23-5.46-8.06-4.62-1.62 0-1.62-2.94-1.62-7.14 0-6.3 0-7.14 4.84-5.88 3.22.84 4.84.42 3.22-4.2 0-4.2-1.6-5.46-4.83-5.04-3.23 0-3.23-.42-3.23-24.78V206.3h80.6v149.1zm-67.7-4.62v30.66h-30.62V501.98H207c-8.06 0-8.06 0-8.06-10.08v-9.66l-6.44.42c-6.45.84-8.06.84-8.06 10.08 0 5.04-1.62 9.24-3.23 9.24 0 0-1.6-35.28-1.6-90.72v-91.14h64.47v30.66zm35.46 94.5v57.96h-17.73v-8.82c-1.6-8.4-1.6-8.82-9.67-8.82-6.45 0-6.45.42-6.45 7.14 0 4.2-1.6 8.4-3.2 9.24-1.62 1.68-20.97.84-22.58-.84-1.6-.42-1.6-92.4-1.6-109.2v-6.3l30.62.84 30.62.42v58.38zm-122.5-8.4v3.78c0-.42-1.62-2.94-3.23-5.04-3.22-2.94-3.22-3.78 0-3.78 1.6 0 3.22 1.68 3.22 5.04zm174.1 37.38c6.43 1.26 6.43 1.68 6.43 15.96v14.28h-19.35v-42.42l3.22 5.46c1.62 2.94 6.45 5.88 9.68 6.72z" stroke="#000" stroke-opacity="0" stroke-width=".06"/><path d="M232.82 240.32c0 3.78 0 5.46 3.22 5.46s4.84-1.68 4.84-5.46c0-4.2-1.62-5.46-4.84-5.46-3.22 0-3.22 1.26-3.22 5.46zM245.7 237.8c-1.6 4.62 0 7.98 4.85 7.98 1.6 0 3.22-1.68 3.22-5.46 0-4.2-1.6-5.46-3.22-5.46-3.23 0-4.84 1.26-4.84 2.94zM257 240.32c0 6.3 8.05 7.56 9.67 1.68 1.6-4.62 0-7.14-4.84-7.14-3.22 0-4.83 1.26-4.83 5.46zM276.34 236.12c0 .84-1.6 3.36-1.6 5.46 0 3.78 1.6 4.2 16.1 4.2 9.68 0 17.74-.84 17.74-1.26v-5.46c-1.6-3.78-3.23-4.2-16.12-4.2-8.06 0-16.12.42-16.12 1.26zM276.34 255.44c-3.23 5.88 1.6 7.56 16.12 7.56 16.12 0 16.12 0 16.12-5.46s0-5.46-16.12-5.46c-11.3 0-16.12.84-16.12 3.36zM245.7 255.86c-1.6.84-1.6 3.36-1.6 5.46 0 2.94 1.6 4.2 4.84 4.2 4.83 0 4.83-.84 4.83-5.04-1.6-5.04-4.83-7.56-8.06-4.62zM257 260.06c0 3.78 1.6 5.46 4.83 5.46 3.22 0 3.22-1.68 3.22-5.46 0-4.2 0-5.46-3.22-5.46s-4.83 1.26-4.83 5.46zM258.6 277.7c-1.6.42-3.22 2.94-3.22 5.46 0 2.94 1.62 4.2 4.84 4.2 4.83 0 4.83-.84 4.83-5.04 0-5.04-3.22-6.3-6.44-4.62zM276.34 279.8c-3.23 7.56 0 9.66 16.12 9.66h16.12v-13.02h-16.12c-11.3 0-16.12.42-16.12 3.36zM244.1 282.74c0 3.78 1.6 4.62 4.84 4.2 1.6-.42 3.22-2.1 3.22-4.2 0-1.68-1.6-3.36-3.22-3.78-3.23-.84-4.84.42-4.84 3.78zM276.34 297.86v5.46c1.6.84 8.06 1.68 16.12 1.68 16.12 0 16.12 0 16.12-5.46s0-5.46-16.12-5.46c-12.9 0-14.5.42-16.12 3.78zM244.1 302.9c1.6 2.94 1.6 5.04 3.22 5.04s3.23-2.1 4.84-5.04c0-3.36-1.6-4.62-4.84-4.62-1.6 0-3.22 1.26-3.22 4.62zM255.38 302.48c0 3.36 1.62 4.62 4.84 4.62 3.22 0 4.83-1.26 4.83-4.62 0-2.94-1.6-4.2-4.83-4.2-3.22 0-4.84 1.26-4.84 4.2zM255.38 324.74c0 2.94 1.62 4.2 4.84 4.2 3.22 0 4.83-1.26 4.83-4.2 0-3.36-1.6-4.62-4.83-4.62-3.22 0-4.84 1.26-4.84 4.62zM276.34 323.48c-3.23 7.98 0 9.66 16.12 9.66h16.12v-13.02h-16.12c-11.3 0-16.12.84-16.12 3.36zM276.34 341.12c-3.23 7.98 0 10.08 16.12 9.24 14.5-.42 14.5-.42 14.5-6.72l1.62-5.88h-16.12c-11.3 0-16.12.42-16.12 3.36zM255.38 347.84c0 7.14 6.45 6.72 8.06-.84 0-3.78 0-5.04-3.22-5.04s-4.84 1.26-4.84 5.88zM255.38 365.06c-1.6 4.62 0 7.56 4.84 7.56 1.6 0 3.22-1.26 3.22-5.46 0-3.78-1.6-5.46-3.22-5.46-3.22 0-4.84 1.68-4.84 3.36zM276.34 362.96v5.46c1.6 3.36 3.22 4.2 11.28 4.62 4.84 0 11.3.42 14.5.42 4.85.84 6.46-.42 6.46-5.46v-6.3h-16.12c-8.06 0-14.5.84-16.12 1.26zM190.9 339.44c0 .84-1.6 2.94-1.6 5.46 0 5.04 9.66 4.62 9.66-.84 1.62-3.36-6.44-7.14-8.06-4.62zM202.2 342.8c0 4.2 1.6 5.88 4.82 5.88 3.23 0 4.84-1.68 4.84-4.2 0-5.04-8.06-6.3-9.67-1.68zM215.08 343.22c0 2.1 0 4.62 1.62 5.88 3.22 3.36 8.06.42 8.06-4.62 0-5.46-8.06-6.3-9.68-1.26zM229.6 343.22c-1.62 2.1 0 4.62 0 5.88 3.22 3.36 9.66.42 8.05-4.2 0-5.04-6.45-6.3-8.06-1.68zM189.3 364.22c0 2.52 1.6 4.2 4.83 4.2 1.6 0 3.22-1.68 3.22-4.2 0-2.94-1.6-4.62-3.22-4.62-3.23 0-4.84 1.68-4.84 4.62zM202.2 364.22c0 2.94 0 4.2 4.82 4.2 3.23 0 4.84-1.26 4.84-4.2 0-3.36-1.6-4.62-4.84-4.62-4.83 0-4.83 1.26-4.83 4.62zM216.7 360.86c-1.62.84-1.62 3.78-1.62 5.88 0 2.94 1.62 4.2 4.84 3.36 1.6-.42 3.22-2.1 3.22-5.04 0-4.2-4.83-7.14-6.44-4.2zM229.6 360.86c0 .84-1.62 3.78-1.62 5.88 0 2.94 1.6 4.2 4.84 3.36 3.22-.42 4.83-2.1 4.83-5.04 0-4.2-4.83-7.14-8.06-4.2zM189.3 383.12c-3.23 3.36-1.62 7.14 3.22 7.14 3.22 0 4.83-.84 4.83-4.2 0-4.62-4.83-6.3-8.06-2.94zM202.2 384.8c0 2.1 0 4.62 1.6 5.88 1.6 3.36 8.06.42 6.45-4.2 0-5.04-6.45-6.3-8.06-1.68zM189.3 404.54c-1.62 4.2 0 7.56 4.83 7.56 3.22 0 3.22-1.26 3.22-4.62-1.6-5.88-6.45-7.98-8.06-2.94zM202.2 402.44v5.88c0 2.94 0 4.2 3.2 3.36 3.24-.42 4.85-2.1 4.85-5.04 0-4.2-4.84-6.72-8.06-4.2zM187.68 428.48c0 5.04 1.6 5.88 4.84 5.04 3.22-.42 4.83-2.1 4.83-5.04 0-2.52-1.6-4.2-4.83-5.04-3.23-.42-4.84.42-4.84 5.04zM202.2 428.48c0 5.04 0 5.88 3.2 5.04 3.24-.42 4.85-2.1 4.85-5.04 0-2.52-1.6-4.2-4.84-5.04-3.2-.42-3.2.42-3.2 5.04zM187.68 447.8c-1.6 4.62 0 8.4 4.84 8.4 3.22 0 4.83-2.94 3.22-7.56 0-4.2-6.45-4.62-8.06-.84zM202.2 448.22c-3.24 4.2-1.62 7.98 3.2 7.98 3.24 0 3.24-1.68 3.24-4.2 0-5.46-4.84-7.56-6.45-3.78zM187.68 468.38c-1.6 4.62 0 7.56 4.84 7.56 3.22 0 4.83-7.98 0-9.66-3.23-1.68-3.23-1.68-4.84 2.1zM198.96 471.32c0 3.36 1.62 4.62 4.84 4.62 4.84 0 4.84-1.26 4.84-4.62 0-3.36 0-4.2-4.84-4.2-3.22 0-4.84.84-4.84 4.2zM226.37 407.9c0 3.36 1.6 4.2 4.83 4.2s4.84-.84 4.84-4.2c0-3.36-1.6-4.62-4.84-4.62-3.22 0-4.83 1.26-4.83 4.62zM240.88 407.9c0 3.36 0 4.62 3.22 3.78 3.22-.42 4.84-2.1 4.84-3.78 0-1.68-1.62-3.36-4.84-4.2-3.22-.42-3.22.84-3.22 4.2zM253.77 409.16c0 7.14 6.45 6.72 8.06-.84 0-3.78-1.6-5.04-3.22-5.04-3.22 0-4.83 1.68-4.83 5.88zM265.05 408.32c1.62 3.36 3.23 5.04 4.84 5.04 3.2 0 4.83-1.68 4.83-5.04 0-3.78 0-5.04-4.84-5.04-3.23 0-4.85 1.26-4.85 5.04zM226.37 427.22c0 3.78 1.6 4.62 4.83 4.62 6.45 0 6.45-7.14 0-8.4-3.22-.42-4.83.84-4.83 3.78zM240.88 427.64c0 2.94 0 4.2 3.22 4.2s3.22-1.26 3.22-4.2c0-2.94 0-4.62-3.22-4.62s-3.22 1.68-3.22 4.62zM252.16 426.38c0 2.1 0 4.62 1.6 5.88 3.24 3.36 8.07.42 8.07-4.2-1.6-5.04-8.06-6.3-9.67-1.68zM265.05 428.48c0 5.04 1.62 5.88 4.84 5.04 3.2-.42 4.83-2.1 4.83-5.04 0-2.52-1.62-4.2-4.84-5.04-3.23-.42-4.85.42-4.85 5.04zM226.37 449.48c0 3.36 1.6 4.2 4.83 4.2s4.84-.84 4.84-4.2c0-3.36-1.6-4.2-4.84-4.2-3.22 0-4.83.84-4.83 4.2zM240.88 449.48c0 2.94 0 4.2 3.22 4.2s3.22-1.26 3.22-4.2c0-2.94 0-4.2-3.22-4.2s-3.22 1.26-3.22 4.2zM252.16 448.22c-1.6 4.62 1.6 7.98 6.45 7.98 1.62 0 3.23-1.68 3.23-5.46 0-4.2-1.6-5.46-4.83-5.46-1.62 0-3.23 1.26-4.84 2.94zM266.67 446.54c0 .84-1.62 3.36-1.62 5.46 0 2.94 1.62 4.2 4.84 4.2 4.83 0 4.83-.84 4.83-5.04 0-5.04-4.84-7.56-8.06-4.62zM226.37 470.48c0 3.78 1.6 5.46 4.83 5.46 1.62 0 3.23-1.68 3.23-5.46 0-4.2-1.6-5.46-3.23-5.46-3.22 0-4.83 1.26-4.83 5.46zM239.26 467.96c-1.6 4.62 0 7.98 4.84 7.98 3.22 0 3.22-1.68 3.22-5.46 0-4.2 0-5.46-3.22-5.46-1.6 0-4.84 1.26-4.84 2.94zM253.77 466.28c-1.6.84-1.6 3.36-1.6 5.46 0 3.36 1.6 4.2 4.83 3.78 1.6-.42 3.22-2.52 3.22-5.04 0-4.62-4.84-7.14-6.45-4.2zM266.67 466.28c-3.23 3.36-1.62 9.66 3.22 9.66 3.2 0 4.83-2.94 4.83-7.56-1.62-3.36-4.84-4.62-8.06-2.1zM555.2 270.14c-11.28 5.04-27.4 15.96-27.4 19.32 0 1.26 3.23 4.62 4.84 7.14 3.22 3.78 4.84 4.2 8.06 1.68 6.45-5.88 27.4-15.54 32.24-15.54 4.84 0 6.45-.42 6.45-8.4 0-8.82 0-8.82-6.46-8.82-3.22 0-11.28 2.1-17.73 4.62zM585.84 266.36v8.4c1.6 6.3 3.22 7.14 9.67 8.4 8.07 1.68 22.57 9.24 30.63 15.54 3.23 3.36 12.9-5.88 9.68-11.34-4.83-8.82-45.13-26.04-49.96-21zM1623.94 272.66c-4.84 6.72-4.84 8.4-4.84 26.46l1.6 18.9 8.07-.42 9.68-.84 1.6-18.48V279.8l-4.83-7.14-6.45-7.14-4.83 7.14zM560.04 294.5c-12.9 5.04-27.4 20.16-32.24 32.76-14.5 36.54-1.6 78.54 32.24 95.34 9.68 5.46 37.08 5.04 48.36-1.26 24.18-13.86 40.3-47.46 33.85-75.18-3.22-16.38-8.06-27.3-17.73-38.22-16.12-17.64-41.9-23.1-64.48-13.44zm32.24 31.5c4.84 10.5 8.06 19.74 9.67 20.16 0 .42 4.84-2.94 11.3-7.56 14.5-10.08 17.72-8.4 12.88 5.88-1.6 5.46-3.22 16.38-4.83 25.2v15.12l-38.7.84-37.06.42v-8.4c-1.62-4.62-3.23-15.96-4.84-25.62-1.6-9.66-3.22-18.48-1.6-19.74 0-.84 6.44 2.1 12.88 6.3 4.84 4.2 11.3 7.98 11.3 7.98 1.6 0 4.82-8.82 9.66-19.74 3.22-10.92 8.06-19.74 9.67-19.74 1.62 0 6.46 8.4 9.68 18.9zm27.4 69.72c1.62 1.68 1.62 3.78 0 4.2 0 .84-17.73 1.26-37.07 1.26-35.45 0-37.06 0-37.06-4.2s1.6-4.62 37.07-4.62c29.03 0 37.1.84 37.1 3.36z" stroke="#000" stroke-opacity="0" stroke-width=".06"/><path d="M574.55 339.86c-3.22 9.66-8.06 17.64-8.06 17.64s-4.84-2.52-8.07-5.46c-9.67-6.72-12.9-7.14-11.28-1.68 1.6 2.1 3.22 9.66 3.22 16.38l1.6 12.6h61.28l1.6-9.24c0-5.04 1.62-12.6 1.62-16.8 1.6-3.36 1.6-6.72 0-6.72 0 0-4.83 2.52-8.06 5.46-4.83 3.36-8.06 5.04-9.67 4.62-1.6-.84-4.83-8.82-8.06-18.06-3.22-8.82-8.06-16.38-8.06-16.38s-4.82 7.98-8.05 17.64zM954.97 302.9c-20.95 13.02-20.95 13.02-37.07 13.02-24.18 0-35.46 4.2-46.75 17.22-4.83 5.88-9.67 13.86-11.28 18.9-1.6 6.3-1.6 28.14-1.6 70.14 0 68.46 0 71.4 12.88 81.48 6.45 5.04 6.45 5.04 87.05 5.04 90.27 0 88.66 0 96.72-15.96l6.44-9.24-1.6-64.68v-64.68l-4.84-10.08c-6.45-12.6-17.74-21.84-29.02-24.78-6.45-2.1-9.67-4.62-12.9-11.34-8.05-12.6-16.1-18.48-27.4-18.06-6.45 0-12.9 2.52-30.63 13.02zm40.3 1.26c3.23 1.68 4.84 4.2 4.84 5.46 0 1.26-6.44 5.88-12.9 10.08-6.43 4.2-19.33 11.76-27.4 17.22l-16.1 9.66-17.74-.42-17.73-.84 17.73-11.34c11.28-6.3 27.4-16.38 37.07-22.26 19.35-12.18 22.57-13.02 32.24-7.56zm17.74 28.98c1.62 6.3 3.23 11.76 3.23 12.18-1.6.84-12.9.84-25.8.84l-24.17-.84 19.34-10.92c9.67-6.3 19.35-11.76 20.96-11.76 0 0 3.22 4.62 6.45 10.5zm-103.16-3.36c0 2.1-24.18 16.38-30.63 17.64l-6.44 1.26 4.84-6.72c8.06-8.82 16.12-12.6 25.8-13.02 3.22 0 6.44.42 6.44.84zm120.9 4.62c3.22 1.68 8.06 5.46 11.28 8.82l4.84 6.3-4.84-1.68c-3.22-.84-6.45-1.26-8.06-1.26-3.22 0-4.84-2.94-6.45-6.72-4.82-9.66-4.82-10.5 3.24-5.46zm11.28 27.72c3.22 2.94 6.45 9.24 6.45 13.86 3.22 16.38 4.83 15.96-16.12 16.8-14.5.84-20.96 2.52-25.8 5.46-19.34 12.6-19.34 44.94 0 58.38 4.84 3.78 11.3 5.04 25.8 5.46 17.73.84 19.34 1.26 19.34 5.88 0 10.92-4.84 21.42-11.3 25.2-4.83 4.2-9.66 4.62-80.6 4.62-43.5 0-77.36-.84-78.98-2.1-3.22-1.26-8.06-5.46-9.67-9.24-3.22-6.72-3.22-10.5-3.22-61.74v-54.6l6.45-6.3 6.44-6.3h156.36l4.84 4.62zm6.45 65.52v21.84h-16.12c-17.73 0-19.34 0-24.18-6.3-4.84-5.04-4.84-8.4-4.84-15.54 0-7.14 0-10.5 4.84-15.54 4.84-6.3 6.45-6.3 24.18-6.3h16.12v21.84z" stroke="#000" stroke-opacity="0" stroke-width=".06"/><path d="M1013 416.72c-4.83 5.46-6.44 15.54-1.6 20.58 6.44 5.46 16.1 5.04 20.95-.84 4.83-6.3 4.83-11.34 0-18.48-4.84-7.14-14.5-7.56-19.34-1.26zm11.3 9.66c0 1.68-1.62 3.36-1.62 3.36-3.23 0-4.84-3.36-3.23-5.04 1.6-2.52 4.84-1.68 4.84 1.68zM1559.46 300.8c-1.6 7.56 0 10.08 3.22 13.86 3.23 2.52 6.45 8.82 9.68 13.86 6.44 10.5 8.06 10.92 16.12 4.2l6.44-5.04c0-.42-3.22-5.88-6.44-11.76-4.84-6.3-8.06-13.86-9.68-16.38 0-3.36-3.22-5.46-6.44-6.72-11.3-2.1-11.3-1.68-12.9 7.98zM1686.8 293.24c-3.22.84-4.83 2.52-6.44 4.62 0 2.1-4.84 9.24-8.06 16.38l-8.06 12.6 4.83 5.46c8.06 7.14 9.68 6.72 16.12-2.94 3.22-4.2 8.05-10.92 9.67-13.86 4.83-4.62 4.83-7.56 4.83-14.7 0-9.66-1.6-10.08-12.9-7.56zM514.9 305c-6.44 11.76-12.9 30.66-12.9 41.58 0 8.82 0 8.82 6.46 8.4 4.84-.84 4.84-1.68 8.06-14.7 3.22-7.98 6.45-18.06 9.67-22.68 4.83-9.66 4.83-15.54-1.62-19.32-3.22-2.1-4.84-.84-9.67 6.72zM637.42 301.22l-4.84 5.04 4.84 8.4c6.45 8.82 12.9 28.98 12.9 36.12 0 4.2 1.6 4.62 8.05 4.2 6.45-.84 6.45-.84 6.45-9.66-1.6-15.54-16.12-49.14-22.57-49.14 0 0-3.22 2.1-4.83 5.04zM658.37 299.54c-1.6.84 0 4.62 1.62 8.4 3.2 5.46 6.43 7.98 11.27 8.82 8.06 1.68 22.57 8.82 29 14.28l4.85 4.62 4.84-5.04c6.44-6.3 4.83-8.4-3.23-15.12-12.9-10.08-45.13-20.58-48.36-15.96zM1251.58 335.66l-32.24 36.96h-12.9c-12.9 0-20.95 4.62-24.18 13.86-4.83 7.98-4.83 83.16 0 91.56 4.84 13.44 4.84 13.02 108 13.02 58.03 0 96.72-.84 99.94-2.1 3.23-1.26 6.45-5.46 9.68-9.24 3.22-6.72 3.22-11.34 3.22-47.46 0-44.1-1.6-49.98-11.28-56.28-3.23-1.68-11.3-3.36-16.12-3.36h-11.3l-33.84-36.96c-30.63-35.28-32.24-37.38-38.7-37.38-8.05 0-9.66 2.1-40.28 37.38zm24.17-2.52c0 3.36 11.3 8.82 17.74 8.82 3.2 0 8.05-2.1 11.27-5.88l6.45-5.46 17.73 21 19.34 21h-56.43c-30.62 0-54.8-.42-54.8-1.26 0-.84 8.06-10.08 16.12-20.58 16.1-18.06 22.55-23.1 22.55-17.64zm-48.35 68.04c9.67 9.24 8.06 27.3-4.84 33.18-1.6 1.26-4.84 2.94-4.84 3.78 0 .84 3.23 7.14 8.06 13.44 4.84 6.3 8.06 12.6 8.06 13.86-1.6 3.78-6.44.84-14.5-11.76-6.45-7.14-11.3-13.02-11.3-13.02-1.6 0-1.6 5.88-1.6 13.44 0 11.34-1.6 13.02-3.22 12.6-3.23-.84-4.84-4.2-4.84-29.4 0-15.54 0-31.08 1.6-34.44 0-5.88 1.62-5.88 11.3-5.88 8.06 0 12.9.84 16.12 4.2zm53.2-.84c0 .84-4.85 2.1-9.68 2.52-17.73.84-19.34 1.68-17.73 13.44v10.08l8.05 1.26c6.45.42 9.67 2.1 9.67 4.2 0 2.52-3.22 3.78-9.67 4.62l-8.06.84V459.56l12.88.84c19.35 1.68 16.12 5.46-3.22 5.46h-17.73v-31.5-34.44c1.6-3.78 33.85-3.36 35.46.42zm29 18.9l9.68 22.68v-21.84c1.6-17.64 1.6-22.26 4.83-22.26 1.63 0 3.24 5.46 3.24 34.86 0 32.34 0 34.44-3.23 34.02-1.6-.42-6.43-8.82-12.88-22.26-11.3-24.36-11.3-23.94-12.9 4.62 0 16.38 0 18.06-3.22 17.64-3.23-.84-3.23-4.2-3.23-32.34 0-17.64 0-33.18 1.62-34.86 1.6-7.14 6.43-.84 16.1 19.74zm74.16-18.9c0 .84-4.84 2.52-9.68 2.94l-8.06 1.26-1.6 31.5c0 28.14 0 31.08-3.23 30.66-3.23-.84-3.23-4.62-3.23-31.92l-1.62-31.5h-8.06c-6.45 0-8.07-.84-8.07-2.94 0-2.94 3.23-3.36 20.96-2.94 12.88.42 22.56 1.26 22.56 2.94z" stroke="#000" stroke-opacity="0" stroke-width=".06"/><path d="M1208.05 404.96c-1.6.84-1.6 6.3-1.6 12.18v10.5h6.44c12.88 0 17.72-10.92 9.66-19.74-3.22-4.2-12.9-5.88-14.5-2.94zM669.66 330.62c0 3.36 1.6 13.44 1.6 22.26 1.62 16.38 4.85 26.46 9.68 26.46 0 0 4.84-2.94 9.67-6.72 9.68-7.14 17.74-8.4 16.13-2.52-4.83 17.22-8.06 29.4-8.06 36.96 0 5.04-1.6 10.08-1.6 11.34-1.62 1.26-12.9 2.94-24.2 2.94-14.5.42-20.94 1.68-22.56 3.36 0 2.1 4.85 2.94 24.2 2.94 22.56 0 24.17.42 24.17 3.78s-3.22 3.78-29 4.2c-27.42.42-29.03.84-37.1 6.3l-8.05 5.88 4.84 4.2c9.67 8.82 37.07 11.34 53.2 5.04 12.9-5.46 30.62-24.78 35.46-40.32 3.22-15.12 3.22-32.76 0-48.3-4.84-15.54-22.57-35.28-35.47-40.32-12.9-5.04-16.12-5.04-12.9 2.52zM1612.66 328.1c-24.18 7.56-40.3 27.72-46.75 57.54-6.44 29.4 9.68 63.84 35.47 77.7 14.5 8.4 30.63 9.66 48.36 3.78 11.28-4.2 14.5-6.72 24.18-17.22 8.07-8.82 12.9-16.38 16.13-25.62 8.06-27.3 1.6-60.9-16.12-79.38-16.1-16.8-41.9-23.52-61.24-16.8zm38.68 14.7c11.3 5.46 22.57 18.06 27.4 30.24 6.45 11.34 4.84 39.48 0 51.66-14.5 29.4-45.13 42.42-70.92 29.82-20.96-10.92-33.85-34.86-32.24-61.32 1.6-21.42 11.28-37.8 29.02-48.72 14.5-8.82 32.23-9.24 46.74-1.68z" stroke="#000" stroke-opacity="0" stroke-width=".06"/><path d="M1609.43 349.94c-25.8 14.28-35.46 49.56-20.95 76.02 20.95 36.12 64.47 34.44 82.2-2.94 22.57-45.36-20.95-96.18-61.25-73.08zm35.46 21l14.5 8.82-1.6 17.64v17.64l-12.9 9.66-14.5 9.24-12.9-8.4-14.52-8.82v-38.64l11.3-7.56c6.43-4.62 12.88-8.4 14.5-8.4 1.6-.42 9.67 3.78 16.1 8.82z" stroke="#000" stroke-opacity="0" stroke-width=".06"/><path d="M1620.7 375.14c-3.2 2.52-6.43 5.46-6.43 6.3 0 2.1 12.9 10.92 16.12 10.92 1.6 0 6.43-2.52 9.66-5.46l8.06-5.88-8.06-5.04c-9.67-6.3-11.3-6.3-19.35-.84zM1607.82 400.76c0 9.66 1.6 10.5 8.06 15.12 4.83 2.94 8.06 5.04 8.06 5.04 1.6 0 1.6-4.62 1.6-10.5 0-10.08 0-11.34-6.44-15.54-3.22-2.52-8.06-4.62-9.67-4.62 0 0-1.6 4.62-1.6 10.5zM1638.45 396.14c-6.45 5.04-6.45 5.46-6.45 14.28 1.6 5.46 1.6 10.08 3.22 10.5 0 1.26 14.5-7.14 14.5-9.66 1.62-1.26 1.62-6.3 1.62-11.76 1.6-11.34-1.6-11.76-12.9-3.36zM714.8 336.08l-4.84 5.04 4.83 7.56c6.44 8.4 12.9 28.56 12.9 35.28 0 3.78 1.6 4.2 8.05 3.78 6.45-.84 6.45-.84 6.45-8.4-1.62-15.96-16.12-47.88-20.96-48.3-1.6 0-4.84 2.1-6.45 5.04zM1525.6 353.3c-4.83 2.94-8.05 5.04-6.44 6.72 4.84 10.92 8.06 15.12 12.9 15.12 3.22 0 9.67 1.68 14.5 4.2 6.45 2.52 11.3 4.2 11.3 4.2 1.6 0 6.44-16.38 4.82-18.48 0-1.68-6.44-5.04-12.9-7.56-6.44-2.52-12.9-5.88-12.9-6.72 0-2.94-1.6-2.52-11.27 2.52zM1720.66 351.62c-1.62 1.68-6.45 4.62-12.9 6.72-6.45 2.52-12.9 5.46-12.9 6.72 0 2.1 4.84 16.38 4.84 18.06 1.6.42 6.45-1.26 12.9-3.78 4.83-2.52 12.9-4.2 14.5-4.2 3.23 0 6.45-2.94 8.06-7.56 6.45-9.66 6.45-11.34 0-14.28-3.22-.84-6.44-2.52-9.67-3.36-1.62-.84-3.23 0-4.84 1.68zM502 373.46c1.63 13.44 6.46 29.4 14.52 40.74l4.84 7.14 4.83-5.04c1.6-2.52 4.83-5.46 4.83-6.3 0-1.26-3.23-6.72-6.45-12.18-3.22-5.88-6.45-16.38-8.06-23.1-1.6-13.02-1.6-13.02-8.06-13.02h-8.06l1.6 11.76zM650.3 370.1c-1.6 10.08-8.05 26.04-12.88 33.6-3.23 5.04-3.23 5.46 0 11.76l4.83 6.72 6.45-7.56c6.45-9.66 14.5-31.08 16.12-42.84 0-8.82 0-8.82-6.45-9.66-6.44-.42-8.06-.42-8.06 7.98zM413.36 378.5c-1.62 3.36 0 10.92 4.83 16.8l4.83 5.88h-14.5c-17.74 0-20.97 1.26-20.97 7.98 0 5.46 0 5.46 17.74 5.46h17.73l-4.84 5.88c-3.23 3.78-6.46 8.82-6.46 12.18 0 10.5 8.06 7.56 19.35-8.4 6.43-7.98 11.27-15.12 11.27-16.38 0-2.94-22.57-30.66-24.18-30.66-1.62 0-3.23.42-4.84 1.26zM1111.33 381.44c-1.6 3.36-1.6 5.46 3.23 10.5 1.6 3.78 4.83 7.56 4.83 7.98 0 .84-6.45 1.26-14.5 1.26-14.52 0-20.97 3.78-17.74 10.5 1.6 2.94 4.83 4.2 17.73 5.04l16.1.84-4.83 5.46c-6.45 6.3-6.45 14.28-1.6 16.8 3.2.84 6.44-2.94 16.1-14.7l12.9-15.96-12.9-15.96c-6.44-8.82-14.5-15.96-14.5-15.96-1.6 0-3.22 2.1-4.84 4.2zM1456.3 379.76c-3.23 3.78-3.23 7.14 1.6 14.7l6.45 6.72h-14.5c-17.73 0-24.18 3.78-20.96 10.5 3.22 3.36 6.44 4.2 19.33 4.62l14.5.42-4.82 7.56c-4.83 7.56-4.83 13.44 0 15.54 1.62.84 8.07-3.36 14.5-12.18 6.46-7.56 11.3-15.12 12.9-16.38 0-1.68-3.2-8.82-11.27-18.48-8.06-8.4-12.9-15.54-14.5-15.54 0 0-1.62.84-3.24 2.52zM664.82 395.72c-1.6 7.14-4.83 13.86-4.83 14.7 0 1.26 6.43 1.68 16.1 1.68h14.5l1.62-14.28c1.62-7.98 3.23-15.12 1.62-15.54 0-.84-4.84 1.26-8.06 3.78l-8.06 5.46-3.23-5.04c-3.23-4.62-4.84-4.2-9.68 9.24zM811.5 383.12c-3.2 1.68-3.2 10.5 1.62 14.7 1.6 2.52 3.23 5.04 3.23 5.88 0 1.26-4.84 2.1-12.9 2.1-16.12 0-19.34 1.26-19.34 7.56s4.84 7.56 20.96 7.56c6.45 0 11.3.84 11.3 1.26 0 .84-1.63 4.2-4.85 7.98-4.83 6.72-4.83 11.34 1.62 13.86 1.6.84 6.45-3.36 16.12-14.28l12.9-16.38-12.9-15.96c-6.45-8.82-12.9-15.96-14.5-15.54 0 0-1.62.42-3.23 1.26zM727.7 405.38c-1.62 4.62-4.85 15.54-8.07 24.36-8.06 15.12-8.06 15.54-4.84 19.74 3.22 2.52 4.83 4.2 6.44 4.2 3.22 0 14.5-20.16 17.73-35.7 6.45-20.58 6.45-21-3.22-21-6.45 0-8.06 0-8.06 8.4zM1544.95 417.56c-3.22 2.1-9.67 3.36-12.9 3.36-3.22 0-6.44 2.52-9.66 8.82l-4.85 8.82 8.06 4.62c8.07 4.62 9.68 4.62 12.9 1.68 1.62-2.1 8.06-5.04 14.5-7.14 11.3-4.2 11.3-5.04 8.07-15.96-1.6-7.98-3.22-8.4-16.12-4.2zM1698.1 421.34c-3.23 10.92-3.23 12.18 8.05 16.38 6.45 2.1 12.9 5.04 14.5 6.72 3.23 2.52 4.84 2.52 11.3-.84 4.83-1.68 8.05-4.2 8.05-5.46 0-.84-1.6-5.04-4.84-9.24-1.6-6.3-4.83-7.98-8.06-7.98-3.22 0-9.67-1.26-14.5-3.36-11.3-4.62-12.9-4.2-14.5 3.78zM531.03 421.76l-4.84 5.46 9.66 7.56c8.06 7.56 20.96 13.02 35.47 15.96l8.06 1.26v-16.8l-11.3-2.94c-6.44-1.26-16.12-5.46-20.95-9.24-4.84-3.36-9.67-6.3-11.3-6.3 0 0-3.2 2.52-4.82 5.04zM619.7 422.18c-6.46 5.46-11.3 7.56-25.8 11.76-8.06 2.1-8.06 2.94-8.06 9.24 0 3.78 1.6 7.56 1.6 7.98 8.07 2.52 46.75-15.12 48.37-23.1 1.62-2.94-4.83-11.34-8.05-11.34 0 0-4.84 2.52-8.06 5.46zM695.45 457.04c-4.84 3.78-14.5 8.4-20.96 10.08-9.68 2.94-9.68 2.94-9.68 10.92v7.98l8.06-1.68c4.84-1.26 12.9-2.94 16.12-4.2 8.06-3.36 25.8-15.96 25.8-18.48 0-1.26-1.62-4.62-4.84-7.14l-4.84-4.2-9.67 6.72zM610 453.26c-1.6.42-4.82 2.52-6.43 3.78-3.23 6.3 29 25.62 46.74 28.14 4.85.42 4.85-.42 4.85-7.98 1.6-5.04 0-7.98 0-7.98-6.45 0-24.18-7.14-30.63-12.18-3.22-2.94-8.06-5.04-8.06-5.04-1.6 0-3.22.84-6.45 1.26zM1573.97 467.54c-3.23 5.04-8.06 11.34-11.3 13.86-3.2 3.78-3.2 5.88-3.2 14.7 0 7.56 1.6 10.5 3.2 9.66 1.63-.84 6.46-2.1 9.7-2.94 4.82-.84 6.43-2.52 6.43-4.62s4.84-9.24 8.06-15.96l8.06-12.6-6.44-5.88c-3.23-2.94-6.45-5.46-8.06-5.46 0 0-3.23 4.2-6.45 9.24zM1670.7 462.92c-6.46 5.04-8.07 9.24-4.85 11.76 3.22 2.1 14.5 21 14.5 23.94 0 2.52 11.3 6.3 16.13 5.88 1.6 0 3.22-4.62 3.22-10.08 0-8.82 0-10.92-3.22-11.76-1.6-.42-3.23-1.68-3.23-2.52 0-2.1-12.9-21.84-14.5-21.84-1.62 0-4.84 2.1-8.06 4.62zM1620.7 480.56c0 1.68 0 10.5-1.6 19.74 0 15.96 0 17.22 4.84 24.36l4.83 7.14 6.45-7.56c4.84-7.14 4.84-8.4 4.84-23.94-1.6-22.26-1.6-22.26-9.67-22.26-4.85 0-8.07 1.26-9.7 2.52zM624.52 581.36c-6.45 2.1-4.83 5.88 1.6 4.62 6.46-1.26 6.46 2.1 0 10.92-3.2 4.2-6.43 8.4-6.43 9.24 0 .42 3.2 1.26 8.05 1.26 4.83 0 9.67-1.26 9.67-2.1 0-1.68-1.6-2.52-4.84-2.52-1.6 0-3.22-.42-3.22-1.26 0-.42 1.6-3.78 3.22-6.72 4.84-7.14 4.84-10.92 0-13.86-3.22-2.52-3.22-2.52-8.06.42zM271.5 583.04c0 1.26 1.6 2.52 3.23 2.52 1.6 0 1.6 2.52 1.6 10.92 0 5.88 1.62 10.92 3.23 10.92 0 0 1.6-5.88 1.6-13.44 0-12.18 0-13.02-4.82-13.02-3.23 0-4.84.84-4.84 2.1zM951.75 583.04c0 1.26 1.6 2.52 4.84 2.52 1.6 0 1.6.42 0 2.52-3.24 3.78-3.24 5.46 1.6 6.72 6.45 1.68 3.22 7.14-3.23 6.72-6.44-.84-4.83 4.62 1.62 5.46 9.66 1.26 16.1-10.92 6.43-14.7-3.22-1.26-3.22-1.68 0-4.62 4.84-4.62 3.23-6.72-4.83-6.72-4.84 0-8.06.84-6.45 2.1zM1285.43 600.68c-4.84 10.92-4.84 10.92 1.6 10.92 3.23 0 6.46 1.26 6.46 3.36 0 1.68 1.6 3.36 1.6 3.36 1.6 0 3.22-1.26 3.22-2.94 0-2.1 1.6-3.78 3.23-4.62 1.6-.84 1.6-1.26 0-2.52-1.62-.84-3.23-2.52-3.23-4.62 0-1.68-1.6-2.94-3.22-2.94 0 0-1.6 1.68-1.6 3.36s-1.63 3.36-3.24 3.36c-3.22 0-3.22-.84 0-6.72 3.23-7.56 3.23-8.82 0-8.82 0 0-3.22 4.2-4.83 8.82zM1627.16 600.68c0 5.04 1.6 6.3 4.84 7.14 6.45.84 6.45 7.56 0 6.72-3.23-.42-6.45.42-6.45 1.26 0 3.78 9.67 5.46 12.9 2.94 8.06-4.2 4.83-15.96-3.23-15.96-1.6 0-3.22-.84-3.22-2.1 0-1.26 1.6-2.1 4.83-2.1s6.45-1.26 6.45-2.1c0-1.26-3.22-2.52-8.06-2.52-6.45 0-8.06.84-8.06 6.72z" stroke="#000" stroke-opacity="0" stroke-width=".06"/><path d="M300 600c0 22.1-17.9 40-40 40s-40-17.9-40-40 17.9-40 40-40 40 17.9 40 40z" stroke="#000" stroke-width="5" fill="#fff"/><use xlink:href="#a" transform="matrix(1,0,0,1,224.9999999999999,565) translate(26.66666666666667 41.97916666666666)"/><path d="M660 600c0 22.1-17.9 40-40 40s-40-17.9-40-40 17.9-40 40-40 40 17.9 40 40z" stroke="#000" stroke-width="5" fill="#fff"/><use xlink:href="#b" transform="matrix(1,0,0,1,585,565) translate(26.66666666666667 41.97916666666666)"/><path d="M1000 600c0 22.1-17.9 40-40 40s-40-17.9-40-40 17.9-40 40-40 40 17.9 40 40z" stroke="#000" stroke-width="5" fill="#fff"/><use xlink:href="#c" transform="matrix(1,0,0,1,925,565) translate(26.66666666666667 41.97916666666666)"/><path d="M1680 600c0 22.1-17.9 40-40 40s-40-17.9-40-40 17.9-40 40-40 40 17.9 40 40z" stroke="#000" stroke-width="5" fill="#fff"/><use xlink:href="#d" transform="matrix(1,0,0,1,1605,565) translate(26.66666666666667 41.97916666666666)"/><path d="M1340 600c0 22.1-17.9 40-40 40s-40-17.9-40-40 17.9-40 40-40 40 17.9 40 40z" stroke="#000" stroke-width="5" fill="#fff"/><use xlink:href="#e" transform="matrix(1,0,0,1,1265,565) translate(26.66666666666667 41.97916666666666)"/><path d="M100 700h336.3v218.27H100z" fill="#fff" fill-opacity="0"/><use xlink:href="#f" transform="matrix(1,0,0,1,105.00000000000003,705) translate(54.42345679012351 31.28888888888888)"/><use xlink:href="#g" transform="matrix(1,0,0,1,105.00000000000003,705) translate(123.08518518518521 31.28888888888888)"/><use xlink:href="#h" transform="matrix(1,0,0,1,105.00000000000003,705) translate(190.33456790123455 31.28888888888888)"/><use xlink:href="#i" transform="matrix(1,0,0,1,105.00000000000003,705) translate(49.58888888888893 85.06666666666665)"/><use xlink:href="#j" transform="matrix(1,0,0,1,105.00000000000003,705) translate(207.88024691358024 85.06666666666665)"/><use xlink:href="#k" transform="matrix(1,0,0,1,105.00000000000003,705) translate(19.332098765432136 138.84444444444443)"/><use xlink:href="#l" transform="matrix(1,0,0,1,105.00000000000003,705) translate(142.96666666666667 138.84444444444443)"/><use xlink:href="#m" transform="matrix(1,0,0,1,105.00000000000003,705) translate(238.3543209876543 138.84444444444443)"/><use xlink:href="#n" transform="matrix(1,0,0,1,105.00000000000003,705) translate(78.92222222222225 192.6222222222222)"/><path d="M484.44 700H792.6v325.82H484.43z" fill="#fff" fill-opacity="0"/><g><use xlink:href="#f" transform="matrix(1,0,0,1,489.43888888888847,705) translate(37.10987654320991 31.28888888888888)"/><use xlink:href="#o" transform="matrix(1,0,0,1,489.43888888888847,705) translate(105.77160493827161 31.28888888888888)"/><use xlink:href="#p" transform="matrix(1,0,0,1,489.43888888888847,705) translate(29.287654320987684 85.06666666666665)"/><use xlink:href="#q" transform="matrix(1,0,0,1,489.43888888888847,705) translate(198.33456790123455 85.06666666666665)"/><use xlink:href="#r" transform="matrix(1,0,0,1,489.43888888888847,705) translate(46.88765432098768 138.84444444444443)"/><use xlink:href="#s" transform="matrix(1,0,0,1,489.43888888888847,705) translate(163.13456790123456 138.84444444444443)"/><use xlink:href="#t" transform="matrix(1,0,0,1,489.43888888888847,705) translate(31.351851851851862 192.6222222222222)"/><use xlink:href="#u" transform="matrix(1,0,0,1,489.43888888888847,705) translate(61.717283950617315 246.39999999999998)"/><use xlink:href="#v" transform="matrix(1,0,0,1,489.43888888888847,705) translate(51.939506172839515 300.17777777777775)"/></g><path d="M840 700h292.6v218.27H840z" fill="#fff" fill-opacity="0"/><g><use xlink:href="#w" transform="matrix(1,0,0,1,845,705) translate(56.27037037037039 31.28888888888888)"/><use xlink:href="#x" transform="matrix(1,0,0,1,845,705) translate(132.2111111111111 31.28888888888888)"/><use xlink:href="#y" transform="matrix(1,0,0,1,845,705) translate(30.956790123456813 85.06666666666665)"/><use xlink:href="#q" transform="matrix(1,0,0,1,845,705) translate(180.66543209876542 85.06666666666665)"/><use xlink:href="#z" transform="matrix(1,0,0,1,845,705) translate(34.21604938271608 138.84444444444443)"/><use xlink:href="#A" transform="matrix(1,0,0,1,845,705) translate(129.6037037037037 138.84444444444443)"/><use xlink:href="#B" transform="matrix(1,0,0,1,845,705) translate(87.23333333333335 192.6222222222222)"/></g><path d="M1182.22 694.08h268.15v274.1h-268.15z" fill="#fff" fill-opacity="0"/><g><use xlink:href="#w" transform="matrix(1,0,0,1,1187.2194444444444,699.0833333333334) translate(25.36666666666669 35.42951388888888)"/><use xlink:href="#C" transform="matrix(1,0,0,1,1187.2194444444444,699.0833333333334) translate(101.30740740740741 35.42951388888888)"/><use xlink:href="#D" transform="matrix(1,0,0,1,1187.2194444444444,699.0833333333334) translate(92.67037037037038 89.20729166666665)"/><use xlink:href="#E" transform="matrix(1,0,0,1,1187.2194444444444,699.0833333333334) translate(38.40370370370373 142.98506944444443)"/><use xlink:href="#F" transform="matrix(1,0,0,1,1187.2194444444444,699.0833333333334) translate(46.11728395061732 196.7628472222222)"/><use xlink:href="#G" transform="matrix(1,0,0,1,1187.2194444444444,699.0833333333334) translate(128.35925925925926 196.7628472222222)"/><use xlink:href="#H" transform="matrix(1,0,0,1,1187.2194444444444,699.0833333333334) translate(10.211111111111137 250.54062499999998)"/><use xlink:href="#B" transform="matrix(1,0,0,1,1187.2194444444444,699.0833333333334) translate(140.25555555555556 250.54062499999998)"/></g><path d="M1500 700h304.44v218.27H1500z" fill="#fff" fill-opacity="0"/><g><use xlink:href="#I" transform="matrix(1,0,0,1,1505,705) translate(74.87283950617287 31.28888888888888)"/><use xlink:href="#J" transform="matrix(1,0,0,1,1505,705) translate(157.33209876543208 31.28888888888888)"/><use xlink:href="#K" transform="matrix(1,0,0,1,1505,705) translate(15.337037037037078 85.06666666666665)"/><use xlink:href="#L" transform="matrix(1,0,0,1,1505,705) translate(175.69259259259258 85.06666666666665)"/><use xlink:href="#M" transform="matrix(1,0,0,1,1505,705) translate(7.3518518518519045 138.84444444444443)"/><use xlink:href="#N" transform="matrix(1,0,0,1,1505,705) translate(54.93703703703708 138.84444444444443)"/><use xlink:href="#O" transform="matrix(1,0,0,1,1505,705) translate(207.47037037037038 138.84444444444443)"/><use xlink:href="#P" transform="matrix(1,0,0,1,1505,705) translate(58.576543209876576 192.6222222222222)"/><use xlink:href="#Q" transform="matrix(1,0,0,1,1505,705) translate(138.75432098765432 192.6222222222222)"/></g><defs><path d="M120-19l41 4V0H29v-15l41-4v-178l-41 13v-15l66-39h25v219" id="R"/><use transform="matrix(0.09259259259259256,0,0,0.09259259259259256,0,0)" xlink:href="#R" id="a"/><path d="M23-231c66-19 162-2 134 80C139-97 87-78 49-40h116V0H15v-33c34-46 90-67 94-145 2-38-37-54-63-33l-8 34H23v-54" id="S"/><use transform="matrix(0.09259259259259256,0,0,0.09259259259259256,0,0)" xlink:href="#S" id="b"/><path d="M108-123c37 3 59 22 60 59C169 8 81 11 16-4l-2-57h16c4 25 8 49 41 47 31-1 44-21 45-52 2-37-24-47-61-46v-22c33 1 52-9 50-44 6-38-35-53-61-33l-7 34H21v-54c52-13 140-14 136 51-2 33-19 52-49 57" id="T"/><use transform="matrix(0.09259259259259256,0,0,0.09259259259259256,0,0)" xlink:href="#T" id="c"/><path d="M46-135c59-12 121 1 121 65C167 6 84 13 17-4l-3-57h17c4 25 9 49 44 47 30-2 40-23 40-54 0-46-35-65-71-47H26v-121h123v39H46v62" id="U"/><use transform="matrix(0.09259259259259256,0,0,0.09259259259259256,0,0)" xlink:href="#U" id="d"/><path d="M150-47V0h-48v-47H5v-28l106-162h39v154h23v36h-23zm-48-36l2-107L34-83h68" id="V"/><use transform="matrix(0.09259259259259256,0,0,0.09259259259259256,0,0)" xlink:href="#V" id="e"/><path d="M275 0h-61l-44-196L126 0H64L0-248h53L97-49l45-199h58l43 199 44-199h52" id="W"/><path d="M185-48c-13 30-37 53-82 52C43 2 14-33 14-96s30-98 90-98c62 0 83 45 84 108H66c0 31 8 55 39 56 18 0 30-7 34-22zm-45-69c5-46-57-63-70-21-2 6-4 13-4 21h74" id="X"/><g id="f"><use transform="matrix(0.10864197530864195,0,0,0.10864197530864195,0,0)" xlink:href="#W"/><use transform="matrix(0.10864197530864195,0,0,0.10864197530864195,36.06913580246913,0)" xlink:href="#X"/></g><path d="M25 0v-261h50V0H25" id="Y"/><path d="M25-224v-37h50v37H25zM25 0v-190h50V0H25" id="Z"/><path d="M137-138c1-29-70-34-71-4 15 46 118 7 119 86 1 83-164 76-172 9l43-7c4 19 20 25 44 25 33 8 57-30 24-41C81-84 22-81 20-136c-2-80 154-74 161-7" id="aa"/><path d="M115-3C79 11 28 4 28-45v-112H4v-33h27l15-45h31v45h36v33H77v99c-1 23 16 31 38 25v30" id="ab"/><g id="g"><use transform="matrix(0.10864197530864195,0,0,0.10864197530864195,0,0)" xlink:href="#Y"/><use transform="matrix(0.10864197530864195,0,0,0.10864197530864195,10.864197530864194,0)" xlink:href="#Z"/><use transform="matrix(0.10864197530864195,0,0,0.10864197530864195,21.72839506172839,0)" xlink:href="#aa"/><use transform="matrix(0.10864197530864195,0,0,0.10864197530864195,43.45679012345678,0)" xlink:href="#ab"/></g><path d="M114-157C55-157 80-60 75 0H25v-261h50l-1 109c12-26 28-41 61-42 86-1 58 113 63 194h-50c-7-57 23-157-34-157" id="ac"/><path d="M195-6C206 82 75 100 31 46c-4-6-6-13-8-21l49-6c3 16 16 24 34 25 40 0 42-37 40-79-11 22-30 35-61 35-53 0-70-43-70-97 0-56 18-96 73-97 30 0 46 14 59 34l2-30h47zm-90-29c32 0 41-27 41-63 0-35-9-62-40-62-32 0-39 29-40 63 0 36 9 62 39 62" id="ad"/><g id="h"><use transform="matrix(0.10864197530864195,0,0,0.10864197530864195,0,0)" xlink:href="#ac"/><use transform="matrix(0.10864197530864195,0,0,0.10864197530864195,23.792592592592587,0)" xlink:href="#Z"/><use transform="matrix(0.10864197530864195,0,0,0.10864197530864195,34.65679012345678,0)" xlink:href="#ad"/><use transform="matrix(0.10864197530864195,0,0,0.10864197530864195,58.44938271604937,0)" xlink:href="#ac"/></g><path d="M123 10C108 53 80 86 19 72V37c35 8 53-11 59-39L3-190h52l48 148c12-52 28-100 44-148h51" id="ae"/><path d="M88-194c31-1 46 15 58 34l-1-101h50l1 261h-48c-2-10 0-23-3-31C134-8 116 4 84 4 32 4 16-41 15-95c0-56 19-97 73-99zm17 164c33 0 40-30 41-66 1-37-9-64-41-64s-38 30-39 65c0 43 13 65 39 65" id="af"/><path d="M135-194c87-1 58 113 63 194h-50c-7-57 23-157-34-157-59 0-34 97-39 157H25l-1-190h47c2 12-1 28 3 38 12-26 28-41 61-42" id="ag"/><g id="i"><use transform="matrix(0.10864197530864195,0,0,0.10864197530864195,0,0)" xlink:href="#ae"/><use transform="matrix(0.10864197530864195,0,0,0.10864197530864195,21.72839506172839,0)" xlink:href="#Z"/><use transform="matrix(0.10864197530864195,0,0,0.10864197530864195,32.59259259259258,0)" xlink:href="#X"/><use transform="matrix(0.10864197530864195,0,0,0.10864197530864195,54.32098765432097,0)" xlink:href="#Y"/><use transform="matrix(0.10864197530864195,0,0,0.10864197530864195,65.18518518518516,0)" xlink:href="#af"/><use transform="matrix(0.10864197530864195,0,0,0.10864197530864195,88.97777777777775,0)" xlink:href="#Z"/><use transform="matrix(0.10864197530864195,0,0,0.10864197530864195,99.84197530864193,0)" xlink:href="#ag"/><use transform="matrix(0.10864197530864195,0,0,0.10864197530864195,123.6345679012345,0)" xlink:href="#ad"/></g><path d="M135-150c-39-12-60 13-60 57V0H25l-1-190h47c2 13-1 29 3 40 6-28 27-53 61-41v41" id="ah"/><path d="M133-34C117-15 103 5 69 4 32 3 11-16 11-54c-1-60 55-63 116-61 1-26-3-47-28-47-18 1-26 9-28 27l-52-2c7-38 36-58 82-57s74 22 75 68l1 82c-1 14 12 18 25 15v27c-30 8-71 5-69-32zm-48 3c29 0 43-24 42-57-32 0-66-3-65 30 0 17 8 27 23 27" id="ai"/><g id="j"><use transform="matrix(0.10864197530864195,0,0,0.10864197530864195,0,0)" xlink:href="#ah"/><use transform="matrix(0.10864197530864195,0,0,0.10864197530864195,15.209876543209873,0)" xlink:href="#X"/><use transform="matrix(0.10864197530864195,0,0,0.10864197530864195,36.938271604938265,0)" xlink:href="#ai"/><use transform="matrix(0.10864197530864195,0,0,0.10864197530864195,58.66666666666665,0)" xlink:href="#Y"/></g><g id="k"><use transform="matrix(0.10864197530864195,0,0,0.10864197530864195,0,0)" xlink:href="#X"/><use transform="matrix(0.10864197530864195,0,0,0.10864197530864195,21.72839506172839,0)" xlink:href="#aa"/><use transform="matrix(0.10864197530864195,0,0,0.10864197530864195,43.45679012345678,0)" xlink:href="#ab"/><use transform="matrix(0.10864197530864195,0,0,0.10864197530864195,56.38518518518517,0)" xlink:href="#ai"/><use transform="matrix(0.10864197530864195,0,0,0.10864197530864195,78.11358024691356,0)" xlink:href="#ab"/><use transform="matrix(0.10864197530864195,0,0,0.10864197530864195,91.04197530864195,0)" xlink:href="#X"/></g><path d="M121-226c-27-7-43 5-38 36h38v33H83V0H34v-157H6v-33h28c-9-59 32-81 87-68v32" id="aj"/><g id="l"><use transform="matrix(0.10864197530864195,0,0,0.10864197530864195,0,0)" xlink:href="#ai"/><use transform="matrix(0.10864197530864195,0,0,0.10864197530864195,21.72839506172839,0)" xlink:href="#aj"/><use transform="matrix(0.10864197530864195,0,0,0.10864197530864195,34.65679012345678,0)" xlink:href="#ab"/><use transform="matrix(0.10864197530864195,0,0,0.10864197530864195,47.58518518518517,0)" xlink:href="#X"/><use transform="matrix(0.10864197530864195,0,0,0.10864197530864195,69.31358024691356,0)" xlink:href="#ah"/></g><path d="M85 4C-2 5 27-109 22-190h50c7 57-23 150 33 157 60-5 35-97 40-157h50l1 190h-47c-2-12 1-28-3-38-12 25-28 42-61 42" id="ak"/><g id="m"><use transform="matrix(0.10864197530864195,0,0,0.10864197530864195,0,0)" xlink:href="#af"/><use transform="matrix(0.10864197530864195,0,0,0.10864197530864195,23.792592592592587,0)" xlink:href="#ak"/><use transform="matrix(0.10864197530864195,0,0,0.10864197530864195,47.585185185185175,0)" xlink:href="#X"/></g><path d="M190-63c-7 42-38 67-86 67-59 0-84-38-90-98-12-110 154-137 174-36l-49 2c-2-19-15-32-35-32-30 0-35 28-38 64-6 74 65 87 74 30" id="al"/><g id="n"><use transform="matrix(0.10864197530864195,0,0,0.10864197530864195,0,0)" xlink:href="#af"/><use transform="matrix(0.10864197530864195,0,0,0.10864197530864195,23.792592592592587,0)" xlink:href="#Z"/><use transform="matrix(0.10864197530864195,0,0,0.10864197530864195,34.65679012345678,0)" xlink:href="#Y"/><use transform="matrix(0.10864197530864195,0,0,0.10864197530864195,45.520987654320976,0)" xlink:href="#Z"/><use transform="matrix(0.10864197530864195,0,0,0.10864197530864195,56.38518518518517,0)" xlink:href="#ad"/><use transform="matrix(0.10864197530864195,0,0,0.10864197530864195,80.17777777777776,0)" xlink:href="#X"/><use transform="matrix(0.10864197530864195,0,0,0.10864197530864195,101.90617283950616,0)" xlink:href="#ag"/><use transform="matrix(0.10864197530864195,0,0,0.10864197530864195,125.69876543209874,0)" xlink:href="#al"/><use transform="matrix(0.10864197530864195,0,0,0.10864197530864195,147.42716049382713,0)" xlink:href="#X"/></g><path d="M110-194c64 0 96 36 96 99 0 64-35 99-97 99-61 0-95-36-95-99 0-62 34-99 96-99zm-1 164c35 0 45-28 45-65 0-40-10-65-43-65-34 0-45 26-45 65 0 36 10 65 43 65" id="am"/><path d="M147 0L96-86 75-71V0H25v-261h50v150l67-79h53l-66 74L201 0h-54" id="an"/><path d="M12 0v-35l95-120H19v-35h142v35L67-36h103V0H12" id="ao"/><g id="o"><use transform="matrix(0.10864197530864195,0,0,0.10864197530864195,0,0)" xlink:href="#ab"/><use transform="matrix(0.10864197530864195,0,0,0.10864197530864195,12.928395061728391,0)" xlink:href="#am"/><use transform="matrix(0.10864197530864195,0,0,0.10864197530864195,36.72098765432098,0)" xlink:href="#an"/><use transform="matrix(0.10864197530864195,0,0,0.10864197530864195,58.44938271604937,0)" xlink:href="#X"/><use transform="matrix(0.10864197530864195,0,0,0.10864197530864195,80.17777777777776,0)" xlink:href="#ag"/><use transform="matrix(0.10864197530864195,0,0,0.10864197530864195,103.97037037037035,0)" xlink:href="#Z"/><use transform="matrix(0.10864197530864195,0,0,0.10864197530864195,114.83456790123454,0)" xlink:href="#ao"/><use transform="matrix(0.10864197530864195,0,0,0.10864197530864195,134.3901234567901,0)" xlink:href="#X"/></g><path d="M135-194c53 0 70 44 70 98 0 56-19 98-73 100-31 1-45-17-59-34 3 33 2 69 2 105H25l-1-265h48c2 10 0 23 3 31 11-24 29-35 60-35zM114-30c33 0 39-31 40-66 0-38-9-64-40-64-56 0-55 130 0 130" id="ap"/><g id="p"><use transform="matrix(0.10864197530864195,0,0,0.10864197530864195,0,0)" xlink:href="#ap"/><use transform="matrix(0.10864197530864195,0,0,0.10864197530864195,23.792592592592587,0)" xlink:href="#ah"/><use transform="matrix(0.10864197530864195,0,0,0.10864197530864195,39.00246913580246,0)" xlink:href="#am"/><use transform="matrix(0.10864197530864195,0,0,0.10864197530864195,62.79506172839505,0)" xlink:href="#ap"/><use transform="matrix(0.10864197530864195,0,0,0.10864197530864195,86.58765432098762,0)" xlink:href="#X"/><use transform="matrix(0.10864197530864195,0,0,0.10864197530864195,108.31604938271602,0)" xlink:href="#ah"/><use transform="matrix(0.10864197530864195,0,0,0.10864197530864195,123.52592592592589,0)" xlink:href="#ab"/><use transform="matrix(0.10864197530864195,0,0,0.10864197530864195,136.45432098765428,0)" xlink:href="#ae"/></g><g id="q"><use transform="matrix(0.10864197530864195,0,0,0.10864197530864195,0,0)" xlink:href="#Z"/><use transform="matrix(0.10864197530864195,0,0,0.10864197530864195,10.864197530864194,0)" xlink:href="#ag"/><use transform="matrix(0.10864197530864195,0,0,0.10864197530864195,34.65679012345678,0)" xlink:href="#ab"/><use transform="matrix(0.10864197530864195,0,0,0.10864197530864195,47.58518518518517,0)" xlink:href="#am"/></g><path d="M175 0L67-191c6 58 2 128 3 191H24v-248h59L193-55c-6-58-2-129-3-193h46V0h-61" id="aq"/><path d="M76-208v77h127v40H76V0H24v-248h183v40H76" id="ar"/><path d="M136-208V0H84v-208H4v-40h212v40h-80" id="as"/><path d="M76-54c-1 42 2 86-19 110H24C36 42 46 24 48 0H25v-54h51" id="at"/><g id="r"><use transform="matrix(0.10864197530864195,0,0,0.10864197530864195,0,0)" xlink:href="#aq"/><use transform="matrix(0.10864197530864195,0,0,0.10864197530864195,28.138271604938264,0)" xlink:href="#ar"/><use transform="matrix(0.10864197530864195,0,0,0.10864197530864195,51.93086419753085,0)" xlink:href="#as"/><use transform="matrix(0.10864197530864195,0,0,0.10864197530864195,72.79012345679011,0)" xlink:href="#aa"/><use transform="matrix(0.10864197530864195,0,0,0.10864197530864195,94.5185185185185,0)" xlink:href="#at"/></g><g id="s"><use transform="matrix(0.10864197530864195,0,0,0.10864197530864195,0,0)" xlink:href="#X"/><use transform="matrix(0.10864197530864195,0,0,0.10864197530864195,21.72839506172839,0)" xlink:href="#ai"/><use transform="matrix(0.10864197530864195,0,0,0.10864197530864195,43.45679012345678,0)" xlink:href="#al"/><use transform="matrix(0.10864197530864195,0,0,0.10864197530864195,65.18518518518516,0)" xlink:href="#ac"/></g><g id="t"><use transform="matrix(0.10864197530864195,0,0,0.10864197530864195,0,0)" xlink:href="#ah"/><use transform="matrix(0.10864197530864195,0,0,0.10864197530864195,15.209876543209873,0)" xlink:href="#X"/><use transform="matrix(0.10864197530864195,0,0,0.10864197530864195,36.938271604938265,0)" xlink:href="#ap"/><use transform="matrix(0.10864197530864195,0,0,0.10864197530864195,60.73086419753085,0)" xlink:href="#ah"/><use transform="matrix(0.10864197530864195,0,0,0.10864197530864195,75.94074074074072,0)" xlink:href="#X"/><use transform="matrix(0.10864197530864195,0,0,0.10864197530864195,97.66913580246911,0)" xlink:href="#aa"/><use transform="matrix(0.10864197530864195,0,0,0.10864197530864195,119.3975308641975,0)" xlink:href="#X"/><use transform="matrix(0.10864197530864195,0,0,0.10864197530864195,141.12592592592588,0)" xlink:href="#ag"/><use transform="matrix(0.10864197530864195,0,0,0.10864197530864195,164.91851851851848,0)" xlink:href="#ab"/><use transform="matrix(0.10864197530864195,0,0,0.10864197530864195,177.84691358024688,0)" xlink:href="#Z"/><use transform="matrix(0.10864197530864195,0,0,0.10864197530864195,188.71111111111108,0)" xlink:href="#ag"/><use transform="matrix(0.10864197530864195,0,0,0.10864197530864195,212.50370370370368,0)" xlink:href="#ad"/></g><g id="u"><use transform="matrix(0.10864197530864195,0,0,0.10864197530864195,0,0)" xlink:href="#aj"/><use transform="matrix(0.10864197530864195,0,0,0.10864197530864195,12.928395061728391,0)" xlink:href="#ah"/><use transform="matrix(0.10864197530864195,0,0,0.10864197530864195,28.138271604938264,0)" xlink:href="#ai"/><use transform="matrix(0.10864197530864195,0,0,0.10864197530864195,49.86666666666665,0)" xlink:href="#al"/><use transform="matrix(0.10864197530864195,0,0,0.10864197530864195,71.59506172839504,0)" xlink:href="#ab"/><use transform="matrix(0.10864197530864195,0,0,0.10864197530864195,84.52345679012343,0)" xlink:href="#Z"/><use transform="matrix(0.10864197530864195,0,0,0.10864197530864195,95.38765432098762,0)" xlink:href="#am"/><use transform="matrix(0.10864197530864195,0,0,0.10864197530864195,119.18024691358022,0)" xlink:href="#ag"/><use transform="matrix(0.10864197530864195,0,0,0.10864197530864195,142.9728395061728,0)" xlink:href="#ai"/><use transform="matrix(0.10864197530864195,0,0,0.10864197530864195,164.70123456790117,0)" xlink:href="#Y"/></g><path d="M231 0h-52l-39-155L100 0H48L-1-190h46L77-45c9-52 24-97 36-145h53l37 145 32-145h46" id="au"/><g id="v"><use transform="matrix(0.10864197530864195,0,0,0.10864197530864195,0,0)" xlink:href="#am"/><use transform="matrix(0.10864197530864195,0,0,0.10864197530864195,23.792592592592587,0)" xlink:href="#au"/><use transform="matrix(0.10864197530864195,0,0,0.10864197530864195,54.21234567901233,0)" xlink:href="#ag"/><use transform="matrix(0.10864197530864195,0,0,0.10864197530864195,78.00493827160491,0)" xlink:href="#X"/><use transform="matrix(0.10864197530864195,0,0,0.10864197530864195,99.7333333333333,0)" xlink:href="#ah"/><use transform="matrix(0.10864197530864195,0,0,0.10864197530864195,114.94320987654318,0)" xlink:href="#aa"/><use transform="matrix(0.10864197530864195,0,0,0.10864197530864195,136.67160493827157,0)" xlink:href="#ac"/><use transform="matrix(0.10864197530864195,0,0,0.10864197530864195,160.46419753086417,0)" xlink:href="#Z"/><use transform="matrix(0.10864197530864195,0,0,0.10864197530864195,171.32839506172837,0)" xlink:href="#ap"/></g><path d="M67-125c0 54 23 88 75 88 28 0 53-7 68-21v-34h-60v-39h108v91C232-14 192 4 140 4 58 4 20-42 15-125 8-236 126-280 215-234c19 10 29 26 37 47l-47 15c-11-23-29-39-63-39-53 1-75 33-75 86" id="av"/><g id="w"><use transform="matrix(0.10864197530864195,0,0,0.10864197530864195,0,0)" xlink:href="#av"/><use transform="matrix(0.10864197530864195,0,0,0.10864197530864195,30.419753086419746,0)" xlink:href="#X"/><use transform="matrix(0.10864197530864195,0,0,0.10864197530864195,52.14814814814814,0)" xlink:href="#ab"/></g><g id="x"><use transform="matrix(0.10864197530864195,0,0,0.10864197530864195,0,0)" xlink:href="#aq"/><use transform="matrix(0.10864197530864195,0,0,0.10864197530864195,28.138271604938264,0)" xlink:href="#ar"/><use transform="matrix(0.10864197530864195,0,0,0.10864197530864195,51.93086419753085,0)" xlink:href="#as"/><use transform="matrix(0.10864197530864195,0,0,0.10864197530864195,72.79012345679011,0)" xlink:href="#aa"/></g><g id="y"><use transform="matrix(0.10864197530864195,0,0,0.10864197530864195,0,0)" xlink:href="#af"/><use transform="matrix(0.10864197530864195,0,0,0.10864197530864195,23.792592592592587,0)" xlink:href="#Z"/><use transform="matrix(0.10864197530864195,0,0,0.10864197530864195,34.65679012345678,0)" xlink:href="#ah"/><use transform="matrix(0.10864197530864195,0,0,0.10864197530864195,49.86666666666665,0)" xlink:href="#X"/><use transform="matrix(0.10864197530864195,0,0,0.10864197530864195,71.59506172839504,0)" xlink:href="#al"/><use transform="matrix(0.10864197530864195,0,0,0.10864197530864195,93.32345679012343,0)" xlink:href="#ab"/><use transform="matrix(0.10864197530864195,0,0,0.10864197530864195,106.25185185185182,0)" xlink:href="#Y"/><use transform="matrix(0.10864197530864195,0,0,0.10864197530864195,117.11604938271601,0)" xlink:href="#ae"/></g><g id="z"><use transform="matrix(0.10864197530864195,0,0,0.10864197530864195,0,0)" xlink:href="#ae"/><use transform="matrix(0.10864197530864195,0,0,0.10864197530864195,21.72839506172839,0)" xlink:href="#am"/><use transform="matrix(0.10864197530864195,0,0,0.10864197530864195,45.520987654320976,0)" xlink:href="#ak"/><use transform="matrix(0.10864197530864195,0,0,0.10864197530864195,69.31358024691356,0)" xlink:href="#ah"/></g><g id="A"><use transform="matrix(0.10864197530864195,0,0,0.10864197530864195,0,0)" xlink:href="#al"/><use transform="matrix(0.10864197530864195,0,0,0.10864197530864195,21.72839506172839,0)" xlink:href="#ah"/><use transform="matrix(0.10864197530864195,0,0,0.10864197530864195,36.938271604938265,0)" xlink:href="#ae"/><use transform="matrix(0.10864197530864195,0,0,0.10864197530864195,58.66666666666665,0)" xlink:href="#ap"/><use transform="matrix(0.10864197530864195,0,0,0.10864197530864195,82.45925925925924,0)" xlink:href="#ab"/><use transform="matrix(0.10864197530864195,0,0,0.10864197530864195,95.38765432098764,0)" xlink:href="#am"/></g><g id="B"><use transform="matrix(0.10864197530864195,0,0,0.10864197530864195,0,0)" xlink:href="#au"/><use transform="matrix(0.10864197530864195,0,0,0.10864197530864195,30.419753086419746,0)" xlink:href="#ai"/><use transform="matrix(0.10864197530864195,0,0,0.10864197530864195,52.14814814814814,0)" xlink:href="#Y"/><use transform="matrix(0.10864197530864195,0,0,0.10864197530864195,63.01234567901233,0)" xlink:href="#Y"/><use transform="matrix(0.10864197530864195,0,0,0.10864197530864195,73.87654320987653,0)" xlink:href="#X"/><use transform="matrix(0.10864197530864195,0,0,0.10864197530864195,95.60493827160492,0)" xlink:href="#ab"/></g><g id="C"><use transform="matrix(0.10864197530864195,0,0,0.10864197530864195,0,0)" xlink:href="#ah"/><use transform="matrix(0.10864197530864195,0,0,0.10864197530864195,15.209876543209873,0)" xlink:href="#X"/><use transform="matrix(0.10864197530864195,0,0,0.10864197530864195,36.938271604938265,0)" xlink:href="#ad"/><use transform="matrix(0.10864197530864195,0,0,0.10864197530864195,60.73086419753085,0)" xlink:href="#ak"/><use transform="matrix(0.10864197530864195,0,0,0.10864197530864195,84.52345679012343,0)" xlink:href="#Y"/><use transform="matrix(0.10864197530864195,0,0,0.10864197530864195,95.38765432098762,0)" xlink:href="#ai"/><use transform="matrix(0.10864197530864195,0,0,0.10864197530864195,117.11604938271601,0)" xlink:href="#ah"/></g><g id="D"><use transform="matrix(0.10864197530864195,0,0,0.10864197530864195,0,0)" xlink:href="#ah"/><use transform="matrix(0.10864197530864195,0,0,0.10864197530864195,15.209876543209873,0)" xlink:href="#X"/><use transform="matrix(0.10864197530864195,0,0,0.10864197530864195,36.938271604938265,0)" xlink:href="#ag"/><use transform="matrix(0.10864197530864195,0,0,0.10864197530864195,60.73086419753085,0)" xlink:href="#ab"/></g><path d="M220-157c-53 9-28 100-34 157h-49v-107c1-27-5-49-29-50C55-147 81-57 75 0H25l-1-190h47c2 12-1 28 3 38 10-53 101-56 108 0 13-22 24-43 59-42 82 1 51 116 57 194h-49v-107c-1-25-5-48-29-50" id="aw"/><g id="E"><use transform="matrix(0.10864197530864195,0,0,0.10864197530864195,0,0)" xlink:href="#ap"/><use transform="matrix(0.10864197530864195,0,0,0.10864197530864195,23.792592592592587,0)" xlink:href="#ai"/><use transform="matrix(0.10864197530864195,0,0,0.10864197530864195,45.520987654320976,0)" xlink:href="#ae"/><use transform="matrix(0.10864197530864195,0,0,0.10864197530864195,67.24938271604937,0)" xlink:href="#aw"/><use transform="matrix(0.10864197530864195,0,0,0.10864197530864195,102.0148148148148,0)" xlink:href="#X"/><use transform="matrix(0.10864197530864195,0,0,0.10864197530864195,123.7432098765432,0)" xlink:href="#ag"/><use transform="matrix(0.10864197530864195,0,0,0.10864197530864195,147.53580246913577,0)" xlink:href="#ab"/><use transform="matrix(0.10864197530864195,0,0,0.10864197530864195,160.46419753086417,0)" xlink:href="#aa"/></g><g id="F"><use transform="matrix(0.10864197530864195,0,0,0.10864197530864195,0,0)" xlink:href="#Z"/><use transform="matrix(0.10864197530864195,0,0,0.10864197530864195,10.864197530864194,0)" xlink:href="#ag"/><use transform="matrix(0.10864197530864195,0,0,0.10864197530864195,34.65679012345678,0)" xlink:href="#ab"/><use transform="matrix(0.10864197530864195,0,0,0.10864197530864195,47.58518518518517,0)" xlink:href="#am"/></g><g id="G"><use transform="matrix(0.10864197530864195,0,0,0.10864197530864195,0,0)" xlink:href="#ae"/><use transform="matrix(0.10864197530864195,0,0,0.10864197530864195,21.72839506172839,0)" xlink:href="#am"/><use transform="matrix(0.10864197530864195,0,0,0.10864197530864195,45.520987654320976,0)" xlink:href="#ak"/><use transform="matrix(0.10864197530864195,0,0,0.10864197530864195,69.31358024691356,0)" xlink:href="#ah"/></g><g id="H"><use transform="matrix(0.10864197530864195,0,0,0.10864197530864195,0,0)" xlink:href="#al"/><use transform="matrix(0.10864197530864195,0,0,0.10864197530864195,21.72839506172839,0)" xlink:href="#ah"/><use transform="matrix(0.10864197530864195,0,0,0.10864197530864195,36.938271604938265,0)" xlink:href="#ae"/><use transform="matrix(0.10864197530864195,0,0,0.10864197530864195,58.66666666666665,0)" xlink:href="#ap"/><use transform="matrix(0.10864197530864195,0,0,0.10864197530864195,82.45925925925924,0)" xlink:href="#ab"/><use transform="matrix(0.10864197530864195,0,0,0.10864197530864195,95.38765432098764,0)" xlink:href="#am"/></g><path d="M238-95c0 69-44 99-111 99C63 4 22-25 22-93v-155h51v151c-1 38 19 59 55 60 90 1 49-130 58-211h52v153" id="ax"/><g id="I"><use transform="matrix(0.10864197530864195,0,0,0.10864197530864195,0,0)" xlink:href="#ax"/><use transform="matrix(0.10864197530864195,0,0,0.10864197530864195,28.138271604938264,0)" xlink:href="#aa"/><use transform="matrix(0.10864197530864195,0,0,0.10864197530864195,49.86666666666665,0)" xlink:href="#X"/></g><g id="J"><use transform="matrix(0.10864197530864195,0,0,0.10864197530864195,0,0)" xlink:href="#am"/><use transform="matrix(0.10864197530864195,0,0,0.10864197530864195,23.792592592592587,0)" xlink:href="#ak"/><use transform="matrix(0.10864197530864195,0,0,0.10864197530864195,47.585185185185175,0)" xlink:href="#ah"/></g><path d="M84 4C32 4 15-41 15-95c0-55 18-99 73-99 29 0 47 12 58 34l2-30h48l-1 265h-49V-32C136-9 114 4 84 4zm21-34c32 0 41-29 41-66 0-36-9-64-40-64-33 0-39 30-40 65 0 43 13 65 39 65" id="ay"/><g id="K"><use transform="matrix(0.10864197530864195,0,0,0.10864197530864195,0,0)" xlink:href="#Y"/><use transform="matrix(0.10864197530864195,0,0,0.10864197530864195,10.864197530864194,0)" xlink:href="#Z"/><use transform="matrix(0.10864197530864195,0,0,0.10864197530864195,21.72839506172839,0)" xlink:href="#ay"/><use transform="matrix(0.10864197530864195,0,0,0.10864197530864195,45.520987654320976,0)" xlink:href="#ak"/><use transform="matrix(0.10864197530864195,0,0,0.10864197530864195,69.31358024691356,0)" xlink:href="#Z"/><use transform="matrix(0.10864197530864195,0,0,0.10864197530864195,80.17777777777775,0)" xlink:href="#af"/><use transform="matrix(0.10864197530864195,0,0,0.10864197530864195,103.97037037037033,0)" xlink:href="#Z"/><use transform="matrix(0.10864197530864195,0,0,0.10864197530864195,114.83456790123451,0)" xlink:href="#ab"/><use transform="matrix(0.10864197530864195,0,0,0.10864197530864195,127.7629629629629,0)" xlink:href="#ae"/></g><g id="L"><use transform="matrix(0.10864197530864195,0,0,0.10864197530864195,0,0)" xlink:href="#ap"/><use transform="matrix(0.10864197530864195,0,0,0.10864197530864195,23.792592592592587,0)" xlink:href="#am"/><use transform="matrix(0.10864197530864195,0,0,0.10864197530864195,47.585185185185175,0)" xlink:href="#am"/><use transform="matrix(0.10864197530864195,0,0,0.10864197530864195,71.37777777777777,0)" xlink:href="#Y"/><use transform="matrix(0.10864197530864195,0,0,0.10864197530864195,82.24197530864195,0)" xlink:href="#aa"/></g><g id="M"><use transform="matrix(0.10864197530864195,0,0,0.10864197530864195,0,0)" xlink:href="#ab"/><use transform="matrix(0.10864197530864195,0,0,0.10864197530864195,12.928395061728391,0)" xlink:href="#am"/></g><path d="M135-194c52 0 70 43 70 98 0 56-19 99-73 100-30 1-46-15-58-35L72 0H24l1-261h50v104c11-23 29-37 60-37zM114-30c31 0 40-27 40-66 0-37-7-63-39-63s-41 28-41 65c0 36 8 64 40 64" id="az"/><g id="N"><use transform="matrix(0.10864197530864195,0,0,0.10864197530864195,0,0)" xlink:href="#az"/><use transform="matrix(0.10864197530864195,0,0,0.10864197530864195,23.792592592592587,0)" xlink:href="#am"/><use transform="matrix(0.10864197530864195,0,0,0.10864197530864195,47.585185185185175,0)" xlink:href="#ah"/><use transform="matrix(0.10864197530864195,0,0,0.10864197530864195,62.79506172839505,0)" xlink:href="#ah"/><use transform="matrix(0.10864197530864195,0,0,0.10864197530864195,78.00493827160491,0)" xlink:href="#am"/><use transform="matrix(0.10864197530864195,0,0,0.10864197530864195,101.7975308641975,0)" xlink:href="#au"/><use transform="matrix(0.10864197530864195,0,0,0.10864197530864195,130.8049382716049,0)" xlink:href="#at"/></g><g id="O"><use transform="matrix(0.10864197530864195,0,0,0.10864197530864195,0,0)" xlink:href="#Y"/><use transform="matrix(0.10864197530864195,0,0,0.10864197530864195,10.864197530864194,0)" xlink:href="#X"/><use transform="matrix(0.10864197530864195,0,0,0.10864197530864195,32.59259259259258,0)" xlink:href="#ag"/><use transform="matrix(0.10864197530864195,0,0,0.10864197530864195,56.38518518518517,0)" xlink:href="#af"/></g><g id="P"><use transform="matrix(0.10864197530864195,0,0,0.10864197530864195,0,0)" xlink:href="#ai"/><use transform="matrix(0.10864197530864195,0,0,0.10864197530864195,21.72839506172839,0)" xlink:href="#ag"/><use transform="matrix(0.10864197530864195,0,0,0.10864197530864195,45.520987654320976,0)" xlink:href="#af"/></g><g id="Q"><use transform="matrix(0.10864197530864195,0,0,0.10864197530864195,0,0)" xlink:href="#aa"/><use transform="matrix(0.10864197530864195,0,0,0.10864197530864195,21.72839506172839,0)" xlink:href="#au"/><use transform="matrix(0.10864197530864195,0,0,0.10864197530864195,52.14814814814814,0)" xlink:href="#ai"/><use transform="matrix(0.10864197530864195,0,0,0.10864197530864195,73.87654320987653,0)" xlink:href="#ap"/></g></defs></g></svg>